<?xml version="1.0" encoding="UTF-8" standalone="no"?>
<svg width="61px" height="150px" viewBox="0 0 61 150" version="1.1" xmlns="http://www.w3.org/2000/svg" xmlns:xlink="http://www.w3.org/1999/xlink" xmlns:sketch="http://www.bohemiancoding.com/sketch/ns">
    <title>rocket</title>
    <description>Created with Sketch (http://www.bohemiancoding.com/sketch)</description>
    <defs></defs>
    <g id="Page-4" stroke="none" stroke-width="1" fill="none" fill-rule="evenodd" sketch:type="MSPage">
        <g id="Rocket-on-Fire" sketch:type="MSLayerGroup" transform="translate(30.217488, 83.213486) rotate(-48.000000) translate(-30.217488, -83.213486) translate(-30.282512, 25.213486)">
            <path d="M85.3560366,63.1521548 C78.6398971,70.9584275 70.1080572,76.530099 62.0106186,82.6357017 C61.7421683,82.576376 61.4785989,82.5170503 61.2101485,82.4676123 C54.9723387,78.1318927 48.9444083,73.6132523 44.7224165,67.008325 C42.3551726,63.3103566 38.2698465,61.5305858 34.8190393,59.0685695 C34.5896363,58.5593573 34.5408272,58.025426 34.6579691,57.4816071 C36.7567627,55.4892525 38.4357976,53.1013933 40.4564965,51.024994 C43.3020702,50.8321855 44.868844,48.1279226 47.4313245,47.3863514 C49.7595212,46.7139935 52.3512872,45.2802892 53.11271,49.3342117 C52.131646,53.8330769 49.9742814,58.4604811 55.069957,62.0694609 C57.0808941,63.4932775 59.0283794,64.4820391 61.468837,63.3845138 C68.1459292,59.5283436 68.2777139,55.7512744 61.9276431,49.6209526 C61.4639561,49.3391555 61.0149119,49.042527 60.5512249,48.7706176 C51.8924812,46.7881506 50.8479653,43.8218659 56.1876866,36.4605359 C56.5586362,36.020537 56.9979186,35.6497514 57.4713674,35.3234601 C60.3364647,34.0380701 62.3278781,31.5809975 64.7878594,29.7715638 C66.9012958,28.2192082 69.2929443,25.6088776 71.9872096,29.1585317 C72.0653042,31.4425709 71.557689,33.6573969 71.1623349,35.8821104 C69.6394893,40.2326614 71.2209058,43.5746755 74.7009985,46.0218604 C77.380621,47.9005074 80.3091702,48.6964605 83.0912919,45.9921976 C84.2480689,44.8304027 85.6391297,44.0097306 86.9911433,43.124789 C92.2576509,37.5086232 91.8427731,33.0245894 85.5610351,27.9472987 C83.4622415,26.6075268 80.3628603,27.0079752 79.1328696,24.1652857 C80.206671,19.7504652 81.8954677,15.998115 87.3767356,16.359013 C93.575498,21.6192246 99.0128377,27.6803331 104.718628,33.4596445 C104.904103,35.3827858 103.898634,36.9005348 102.800428,38.2155877 C96.8408304,45.3198397 92.9800264,54.2038625 85.3560366,59.8447473 C83.2328385,61.4168782 87.5134012,62.1188989 85.3560366,63.1521548" id="Fill-2" fill="#D35526" sketch:type="MSShapeGroup"></path>
            <path d="M117.852752,11.9682594 C118.714999,14.7477751 117.812648,17.2503112 116.559381,19.6945357 C113.726999,20.5643492 113.431228,23.4167543 111.937335,25.3215973 C110.543702,27.1049579 109.816808,29.5054488 106.994452,29.7872878 C99.1139125,26.9543199 94.6623101,20.9287962 91.2885169,13.8973988 C95.9957856,8.34322659 102.693241,6.13710744 109.340567,3.84352101 C113.526476,5.2235603 116.544342,7.7601114 117.852752,11.9682594" id="Fill-4" fill="#616060" sketch:type="MSShapeGroup"></path>
            <path d="M57.6577081,97.3468782 C57.5332048,98.9507678 57.4136818,100.549645 57.2941587,102.148523 C53.2552743,104.524284 48.7482579,106.012894 44.9085787,108.764568 C38.6385967,111.706703 32.9861507,116.558469 24.0268992,116.252727 C26.5866853,113.977209 27.8864989,112.819401 29.1863125,111.666605 C34.5001098,109.345978 34.4851694,102.920395 38.4045307,99.5271656 C39.8338276,98.6249777 38.3597095,102.749981 40.7202905,100.790229 C42.5380374,99.28157 44.6545921,98.0987014 46.4225378,96.4797753 C49.0968669,95.2668338 50.9544549,92.5151606 54.1417372,92.2445043 C55.8997226,93.5376403 56.5122785,95.627709 57.6577081,97.3468782" id="Fill-5" fill="#F8C238" sketch:type="MSShapeGroup"></path>
            <path d="M20.9040354,57.8951766 C22.7332674,54.5140006 23.7533218,49.663623 29.2998673,53.0196415 C29.4764152,56.4511327 30.2561683,59.5958277 33.257482,61.6839051 C34.0176187,63.4449343 33.5468244,65.0248291 32.6003316,66.5393142 C30.3052093,69.407276 28.9565798,73.0148701 26.0582523,75.4249643 C24.7978967,76.1645966 23.4492671,75.5759097 22.1496787,75.7016975 C20.4920903,77.5885145 18.3097625,77.3470019 16.1617635,77.2664977 C12.9348608,78.5143127 11.5273819,77.779712 13.2143949,74.2073384 C14.7640928,70.9368557 17.2112425,68.3154379 20.065433,66.2676125 C22.8754866,64.2499762 22.9833769,62.448695 20.4332411,60.2750818 C20.1537069,59.3895357 20.246885,58.5844938 20.9040354,57.8951766" id="Fill-6" fill="#F2A226" sketch:type="MSShapeGroup"></path>
            <path d="M21.7198482,60.7453416 C23.4417362,61.0938417 25.6164907,61.1934131 25.9250371,63.2794352 C26.1788414,64.9970428 24.3325395,65.8035716 23.0237056,66.6748219 C19.6695076,68.8952654 17.0617928,71.7927948 14.9168977,75.1981387 C12.8167915,78.528804 15.9520211,76.9804678 16.8975665,77.4733465 C11.6025121,79.2009113 5.94914573,80.3559402 3.35138407,86.2754634 C2.90847068,87.2761565 2.43569797,88.983807 0.982543936,88.2021711 C-0.460656985,87.4255137 -0.117274697,85.7527132 0.798411405,84.6076415 C3.13241565,81.7001549 4.80951466,78.4391896 6.34229357,75.0836315 C10.4877638,72.2358878 11.2392236,67.2374006 13.6926652,63.3142852 C15.7778417,59.9885985 17.9725024,58.2759694 21.7198482,60.7453416" id="Fill-8" fill="#FAC33A" sketch:type="MSShapeGroup"></path>
            <path d="M85.229582,63.4180967 C84.8513175,60.1477675 83.2558168,63.4682551 81.6797144,62.3497223 C90.5834808,53.9331389 96.8975897,43.5352979 103.861538,33.6490727 C106.780964,33.4333915 106.984645,35.1538254 106.39785,37.4410495 C100.5299,47.1366726 93.8375262,56.1150303 85.229582,63.4180967" id="Fill-9" fill="#D7633B" sketch:type="MSShapeGroup"></path>
            <path d="M106.93766,37.4743299 C106.893845,35.6876901 106.105181,34.4136109 104.39154,33.7790121 C98.2380118,29.0048763 92.5177621,23.7914029 88.0389282,17.338021 C87.6445961,16.9621432 87.4498642,16.5032794 87.4449959,15.9565481 C87.970772,14.1455007 89.3192905,13.5255465 91.0475362,13.4523235 C91.2812145,13.5792433 91.5148927,13.7061631 91.7437027,13.8282013 C96.1884585,19.4712493 100.209672,25.5292273 106.752664,29.0976254 C108.149866,29.6882904 110.02416,29.536963 110.506122,31.5383901 C109.313389,33.5154095 108.125524,35.4973104 106.93766,37.4743299" id="Fill-10" fill="#998D69" sketch:type="MSShapeGroup"></path>
            <path d="M39.4009833,49.4193358 C51.288617,33.1237947 66.3224,20.4093695 84.006605,10.7149862 C85.2238359,10.2417324 85.4397962,10.9979626 85.5232354,11.9249545 C81.8764509,16.6233396 76.2074926,18.7115107 71.775398,22.429236 C66.7543206,26.6446095 61.0068313,30.0256903 56.9330344,35.3241806 L56.9330344,35.3290595 C52.8346966,38.271039 49.3204332,41.7692135 46.2331824,45.7650363 C44.8687058,47.5263209 43.4158819,49.4925194 40.9077973,49.9657731 C40.3384474,49.9608942 39.8329039,49.7852537 39.4009833,49.4193358" id="Fill-13" fill="#B15033" sketch:type="MSShapeGroup"></path>
            <path d="M57.0994198,97.0489055 C53.9639983,96.8257953 53.6499413,94.7450504 53.6808321,92.436345 C52.7386611,91.0588821 52.8210368,89.414657 52.3628224,87.9159386 C52.2907438,86.3638678 50.9881795,85.1658631 50.9315463,83.6040918 C51.7141145,82.1538756 53.0887575,81.9986685 54.5869638,82.1005232 C57.2693195,85.9515989 59.5758365,80.7812629 62.1346287,81.8143601 L62.4023495,82.1684262 C62.4023495,85.4180746 62.2170043,88.6725732 62.4486857,91.9028206 C62.7164065,95.6762929 58.9116831,95.3755791 57.0994198,97.0489055" id="Fill-14" fill="#E79B18" sketch:type="MSShapeGroup"></path>
            <path d="M109.298543,3.94778777 C102.929785,6.27632581 97.4466825,10.1865123 91.6053374,13.4523235 L91.3515822,13.4474419 C89.2867115,12.4467075 87.4905228,11.3092875 88.9185177,8.61462711 C92.7298212,6.45206453 96.4316617,4.21139585 101.233108,4.77278343 C103.949781,5.09008945 105.551922,1.77546193 108.427814,1.92679249 C109.074641,2.45400865 109.99015,2.8689473 109.298543,3.94778777" id="Fill-15" fill="#7C7C7C" sketch:type="MSShapeGroup"></path>
            <path d="M109.478006,4.12104018 C109.17672,3.45750082 108.880541,2.79396146 108.584361,2.1304221 C110.861877,1.30821028 113.200672,0.81295989 115.656917,1.00048188 C119.175321,2.56797341 118.312317,6.35207107 120.114924,8.78504872 C120.104711,10.179443 119.35405,11.0593539 117.990605,11.530563 C115.156476,9.06392759 112.317241,6.59248388 109.478006,4.12104018" id="Fill-17" fill="#E0D526" sketch:type="MSShapeGroup"></path>
            <path d="M32.6847759,62.176537 C27.7949866,60.6033774 26.6898639,58.0273285 29.0969119,53.8092942 C31.1406319,53.9469456 33.300415,53.48483 35.0918239,54.915422 C35.7579252,55.8150727 35.7125092,56.6803105 34.935391,57.5013032 C34.8849288,57.8405157 34.8647439,58.1846444 34.8798825,58.5287731 C34.9000674,59.8167975 34.7184034,61.0605769 34.0472559,62.2060338 C33.5880497,62.5599947 33.1288434,62.5304979 32.6847759,62.176537" id="Fill-18" fill="#E38D0F" sketch:type="MSShapeGroup"></path>
            <path d="M110.599044,31.7090483 C109.286897,30.8766717 107.974749,30.0492793 106.662601,29.2169026 C110.047636,26.7297412 111.339361,22.8220568 113.361192,19.4626444 C114.811192,17.045263 115.337073,18.9044037 116.271403,19.5324244 C115.056263,23.8936794 113.376509,28.0455942 110.599044,31.7090483" id="Fill-19" fill="#767674" sketch:type="MSShapeGroup"></path>
            <path d="M21.1442585,60.370906 C16.2086302,59.32313 14.2980644,62.6992972 12.1785305,66.2931185 C10.3624979,69.3706442 10.4371294,74.0324884 5.77017441,74.9486597 C7.78024883,71.1219994 10.0490457,67.4117586 11.7406925,63.4433701 C13.6114548,59.0599205 16.3777949,56.8985661 21.1343076,57.8906632 C21.139283,58.7157236 21.1442585,59.5407839 21.1442585,60.370906" id="Fill-22" fill="#DAB72E" sketch:type="MSShapeGroup"></path>
            <path d="M119.7678,8.64792227 C115.831902,7.25136079 117.431819,2.96758176 115.310523,0.63007459 C121.960658,-0.702106403 121.960658,-0.702106403 119.7678,8.64792227" id="Fill-26" fill="#D6B02E" sketch:type="MSShapeGroup"></path>
            <path d="M88.993267,8.64792227 C88.8806167,10.8543951 90.753428,11.9733174 91.2885169,13.8242448 C90.1807889,14.6451364 89.0777547,15.4660279 87.9700268,16.2869195 C85.2664195,16.6790651 85.5058014,14.5980789 85.533964,12.6896367 C85.2100944,12.2242906 84.8862247,11.7537158 84.5623551,11.2883696 C85.7780396,9.86618808 87.3363688,9.1498687 88.993267,8.64792227" id="Fill-31" fill="#A9A278" sketch:type="MSShapeGroup"></path>
            <path d="M44.2053845,108.579469 C47.5002727,104.673297 52.0508346,103.168962 56.6968278,101.853307 C53.4170078,105.784975 48.5098344,106.605985 44.2053845,108.579469" id="Fill-39" fill="#D4AE44" sketch:type="MSShapeGroup"></path>
            <path d="M35.5574622,57.6528152 C35.6103171,56.7145909 35.663172,55.7816974 35.7213124,54.848804 C38.2107775,54.0598427 38.7657538,51.2025233 40.8429508,49.9657731 C41.2287915,49.9870964 41.6146322,49.9870964 42.0004728,49.9657731 C42.2647473,50.2536374 42.3440296,50.5361709 42.2383198,50.8080427 C42.1378955,51.0745836 42.0374713,51.2078541 41.947618,51.2078541 C39.4158689,52.9510322 39.2573043,57.0824175 35.5574622,57.6528152" id="Fill-43" fill="#AD4521" sketch:type="MSShapeGroup"></path>
            <path d="M34.2755477,61.1002394 C32.9607657,59.4066797 33.8471356,58.4317521 35.3539643,57.6528152 C40.3028627,58.4317521 43.774478,61.5123221 46.3991177,65.5426927 C49.693459,70.613321 54.1450054,74.4175485 58.7885987,78.0308109 C60.1920176,79.1213227 61.7825591,79.9253866 62.4621093,81.7295051 C60.3200488,82.6893564 58.8082958,86.5388126 55.7404712,83.2572266 C54.0957627,81.7998607 51.9487779,81.3827525 50.0677041,80.407825 C43.5233399,75.0658251 38.5153502,68.4071705 34.2755477,61.1002394" id="Fill-47" fill="#AD4521" sketch:type="MSShapeGroup"></path>
            <path d="M85.8519558,12.4914433 C86.7032626,13.6450146 87.5545694,14.7935705 88.4058761,15.9421263 C88.4009553,16.3584151 88.3960344,16.7747039 88.3911136,17.1859772 C83.2832728,16.7747039 82.5057788,21.4943154 80.1831383,24.3782438 C78.1606695,27.2722033 75.4000735,28.8771721 71.9505587,29.2934609 C68.6437485,28.0145014 66.7787469,30.2915509 64.7415157,32.2626533 C62.7239678,34.2187091 61.1394545,36.9822648 57.6899397,36.4456033 C57.51771,34.5246562 58.0196366,32.8544855 59.5844664,31.6658055 C68.2107139,25.0904487 76.3202722,17.7778094 85.8519558,12.4914433" id="Fill-48" fill="#DE6B40" sketch:type="MSShapeGroup"></path>
            <path d="M71.8676049,28.8028669 C74.2435537,26.5392758 77.0827378,25.041598 80.2008593,24.0220063 C82.556884,24.836704 84.9129087,25.6465232 87.2689334,26.4612209 C87.5877189,28.0515888 86.3474438,28.3247809 85.2715424,28.7345689 C81.95418,29.3882784 78.0889048,28.3930789 75.6880508,31.7982224 C73.2174626,36.9156947 76.5447871,39.271976 80.4250054,41.3550652 C82.367605,42.4136844 84.4496734,41.6282573 86.4620073,41.7697317 C87.4980605,42.0770728 88.6785634,42.2526962 88.3498157,43.784523 C87.20418,44.6040991 86.0635254,45.4285536 84.9178897,46.2530081 C76.6543696,49.0532265 70.1889995,44.5553148 70.1491513,35.9790363 C70.5177472,33.5398217 70.477899,31.0079169 71.8676049,28.8028669" id="Fill-49" fill="#E3C921" sketch:type="MSShapeGroup"></path>
            <path d="M41.3227438,51.0239849 C41.3619452,50.6438518 41.3815459,50.2587818 41.3717455,49.8737119 C46.0122136,47.1880959 47.9624842,41.9402837 51.931628,38.5931372 C53.6956918,37.1022254 55.1216435,35.1768757 57.8020406,35.6162504 C57.3414239,36.6628507 57.0229123,37.7983134 56.40549,38.7363043 C53.5535867,43.0411888 54.6806275,45.4849019 59.9042167,46.3340305 C60.7911488,46.4821343 61.6143786,47.0548024 62.4621093,47.4299988 C59.5759048,49.7009241 56.3466878,49.4047164 53.063569,48.7086285 C50.2067655,45.1195791 48.1143897,48.4864727 45.7819052,49.5330731 C44.3412531,50.1797931 43.7630321,53.4035197 41.3227438,51.0239849" id="Fill-50" fill="#DD6B3F" sketch:type="MSShapeGroup"></path>
            <path d="M52.351276,48.4467939 C55.4223495,46.7241918 58.7776877,47.0986705 62.0924167,47.1585871 C62.0873405,47.1535941 61.9756651,47.3233578 61.9756651,47.3233578 C61.7726189,50.384097 58.7726116,49.2606609 57.275146,50.3890901 C55.929965,51.0531657 55.0365618,52.1166852 54.4984894,53.4797877 C53.9756455,54.9177859 54.2903671,56.240944 55.0619426,57.5041855 C56.6253982,60.3352445 59.8842894,60.7796258 62.2447013,62.4722696 C62.564499,62.9915467 62.5391183,63.4808656 62.1177974,63.9352331 C55.5594057,66.0073485 48.9096432,60.5149942 50.1126918,53.8492733 C50.4527942,51.9768798 51.5847767,50.2442917 52.351276,48.4467939" id="Fill-51" fill="#E7CA1F" sketch:type="MSShapeGroup"></path>
            <path d="M88.3448372,44.2004916 C87.8215075,43.3042834 86.8940221,43.245835 85.9665368,43.1873867 C88.6919965,37.8929392 87.1479148,32.9491819 84.5623551,28.0882264 C85.5934701,27.9859418 86.6245851,27.8739158 87.2204555,26.9046471 C94.7698751,32.2965085 95.2258456,39.2567343 88.3448372,44.2004916" id="Fill-52" fill="#E6A722" sketch:type="MSShapeGroup"></path>
            <path d="M56.6968278,50.1306853 C58.1803887,48.0783814 61.235387,50.1159558 62.7086096,48.0440126 C66.8594787,49.9932104 69.6146633,52.752528 69.1339275,57.5690594 C68.7617449,61.3250702 66.8026174,63.6474141 62.8533472,64.3789769 C62.8533472,63.9272737 62.8533472,63.4755704 62.848178,63.0238672 C62.6465791,62.4543283 62.6620868,61.8749698 62.8636856,61.3152505 C65.4689634,54.1665556 65.4689634,54.1665556 58.0718355,51.2353943 C57.4980541,51.0046329 57.0276567,50.6462161 56.6968278,50.1306853" id="Fill-53" fill="#DEA223" sketch:type="MSShapeGroup"></path>
            <path d="M69.9465137,36.5134496 C71.7260479,44.6920026 75.25061,47.2500077 84.5623551,47.1390095 C81.6490458,51.4578505 77.8533635,50.0501909 74.7330169,48.0320409 C70.8239572,45.4992626 67.6888222,42.0179538 69.9465137,36.5134496" id="Fill-54" fill="#BA4F1B" sketch:type="MSShapeGroup"></path>
            <path d="M51.7630006,84.0545692 C54.0202871,84.2995379 53.7945585,85.9996206 53.814187,87.5527221 C50.2319715,89.7770377 50.0651286,94.5588265 46.7331774,96.964419 C45.192334,99.1985334 43.0135618,100.491968 40.5305466,101.506138 C37.286924,102.833869 39.0780318,99.9824332 38.440103,99.1691372 C38.6707388,97.5327463 38.8424889,95.8718587 39.9416892,94.5098328 C41.7377042,92.8783413 40.2115822,91.4232273 39.696332,89.9191196 C41.7131685,88.1406469 44.5691266,87.6213133 46.3504201,85.480287 C48.0188493,84.5053116 49.4958998,82.7660339 51.7630006,84.0545692" id="Fill-57" fill="#F29C23" sketch:type="MSShapeGroup"></path>
            <path d="M47.0880253,97.0489055 C48.2749701,94.085164 49.6258028,91.1775345 50.5942306,88.1423775 C51.4484336,85.4438933 52.8538954,86.7140683 54.254391,87.2496842 C54.3239192,88.8871387 55.3966392,90.5245932 54.2444585,92.1569465 C51.8010406,93.7025811 49.9535783,96.1562123 47.0880253,97.0489055" id="Fill-58" fill="#F9AE34" sketch:type="MSShapeGroup"></path>
            <path d="M34.13186,61.4963362 C38.4209208,64.7442787 41.0011346,69.5710823 44.3074874,73.6861453 C46.180926,76.021857 48.0737282,78.1320173 50.4070548,79.881295 C51.3558764,81.1092979 50.9492385,82.4676196 49.734166,82.5578402 C47.2168842,82.7432937 44.2832828,82.6330241 42.2210481,81.8360752 C38.6484444,80.4526923 41.4707045,77.2899581 41.9935246,74.8640257 C42.0032064,73.5207408 41.7224327,72.4731791 40.1346088,73.3854098 C38.5322621,74.3026529 36.9880066,75.3351778 35.4147055,76.3175802 C30.7383705,74.5081554 29.7508215,71.1800168 31.692033,66.6439241 C32.9651967,65.2655535 32.9700376,63.5062512 33.0862198,61.7770226 C33.4492893,61.7319123 33.797836,61.6416916 34.13186,61.4963362" id="Fill-59" fill="#61605C" sketch:type="MSShapeGroup"></path>
            <path d="M31.7505745,66.3007374 C31.0426617,70.4196213 33.2654089,73.3316002 35.5574622,76.2127646 C31.7159214,80.6654731 28.329821,81.6464043 25.9486597,74.8671941 C28.6813022,72.59205 28.65655,68.3036859 31.7505745,66.3007374" id="Fill-60" fill="#DD7513" sketch:type="MSShapeGroup"></path>
            <path d="M48.0489055,86.431071 C46.4851493,89.5475251 43.9211982,90.6616447 40.5906005,90.2355068 C40.1336587,89.865845 39.7224111,89.4037678 39.2146981,89.1367898 C30.822201,84.7521904 30.6546557,83.3813613 37.8641813,77.8313005 C41.2150876,80.7475212 45.8251223,82.1440212 48.0489055,86.431071" id="Fill-64" fill="#DE7413" sketch:type="MSShapeGroup"></path>
            <path d="M47.4068427,87.440103 C43.9079258,84.7789276 39.854725,82.8180615 37.4792227,78.75108 C39.052993,77.4801482 40.6317122,76.214404 42.2104315,74.9486597 C43.6951204,75.768281 42.4727265,76.5049026 42.2401252,77.3971486 C41.5819131,79.9234496 41.7155351,79.7678253 44.5166482,79.7263255 C45.7093483,79.7107631 46.9812319,80.7897582 48.0996975,81.5575047 C49.9011201,82.8024991 50.5642811,81.9932527 50.8067803,80.1413236 C53.3060067,80.2139483 54.6521246,81.9154406 55.7359475,83.9852437 C54.5630433,84.2342426 53.1030992,83.5183708 52.3013672,85.0746137 C50.6731583,85.8631102 49.0400005,86.6516066 47.4068427,87.440103" id="Fill-65" fill="#5F5D5B" sketch:type="MSShapeGroup"></path>
            <path d="M84.3427703,27.9884436 C90.6925858,34.8662399 90.8799408,36.9664063 85.7150191,43.4162066 C83.6946233,43.8093657 81.6641001,44.9838664 79.6538316,43.3813697 C77.4359535,40.8333005 78.5145106,39.4099649 81.1678626,37.976676 C84.0186968,36.428923 83.2895314,34.9757272 80.4488245,34.2491294 C78.1398006,33.6519256 75.6181036,33.5872286 73.9926724,31.4771087 C76.3573963,27.207102 80.4336335,27.8341659 84.3427703,27.9884436" id="Fill-68" fill="#9396A0" sketch:type="MSShapeGroup"></path>
            <path d="M74.1495321,30.7481681 C75.5003963,31.0373963 76.856358,31.3169835 78.2021246,31.6254935 C80.8069985,32.2184113 84.7525413,31.3266244 85.4356198,34.3394179 C86.108503,37.2943657 82.7695747,38.2681005 80.0780416,39.2129125 C78.732275,39.6804981 80.1035296,41.2375097 79.8537472,42.2787311 C73.0943288,39.2225535 71.7179767,36.4411426 74.1495321,30.7481681" id="Fill-69" fill="#B6ADB3" sketch:type="MSShapeGroup"></path>
            <path d="M56.5183894,50.056847 C60.4244595,49.6752424 63.9536727,50.3824829 65.7411963,54.3053784 C67.5134419,58.1875694 64.7379423,60.7570405 62.5786546,63.4180967 C58.9272175,63.3977444 55.8614363,62.3343396 54.1961365,58.7523442 C55.1280933,57.3836557 56.7577444,57.1190765 58.1174846,56.3202508 C56.9869141,54.8854174 54.62392,55.511249 53.814187,53.6693707 C54.0331714,51.954694 55.2095758,50.9574339 56.5183894,50.056847" id="Fill-70" fill="#9D9EA5" sketch:type="MSShapeGroup"></path>
            <path d="M53.654873,52.8484139 C56.5052865,52.9589151 59.2326252,53.4201377 62.4621093,55.5340742 C59.0898584,56.5526073 56.7514362,57.7248812 54.0240975,57.6480108 C53.0690367,56.105798 52.1385908,54.5683896 53.654873,52.8484139" id="Fill-71" fill="#CAB8B3" sketch:type="MSShapeGroup"></path>
        </g>
    </g>
</svg>