<?xml version="1.0" encoding="UTF-8" standalone="no"?>
<svg width="61px" height="207px" viewBox="0 0 61 207" version="1.1" xmlns="http://www.w3.org/2000/svg" xmlns:xlink="http://www.w3.org/1999/xlink" xmlns:sketch="http://www.bohemiancoding.com/sketch/ns">
    <title>rocketFired</title>
    <description>Created with Sketch (http://www.bohemiancoding.com/sketch)</description>
    <defs></defs>
    <g id="Page-4" stroke="none" stroke-width="1" fill="none" fill-rule="evenodd" sketch:type="MSPage">
        <g id="Rocket-on-Fire" sketch:type="MSLayerGroup" transform="translate(29.846312, 103.099444) rotate(-47.000000) translate(-29.846312, -103.099444) translate(-45.653688, 32.099444)">
            <path d="M115.356037,63.1521548 C108.639897,70.9584275 100.108057,76.530099 92.0106186,82.6357017 C91.7421683,82.576376 91.4785989,82.5170503 91.2101485,82.4676123 C84.9723387,78.1318927 78.9444083,73.6132523 74.7224165,67.008325 C72.3551726,63.3103566 68.2698465,61.5305858 64.8190393,59.0685695 C64.5896363,58.5593573 64.5408272,58.025426 64.6579691,57.4816071 C66.7567627,55.4892525 68.4357976,53.1013933 70.4564965,51.024994 C73.3020702,50.8321855 74.868844,48.1279226 77.4313245,47.3863514 C79.7595212,46.7139935 82.3512872,45.2802892 83.11271,49.3342117 C82.131646,53.8330769 79.9742814,58.4604811 85.069957,62.0694609 C87.0808941,63.4932775 89.0283794,64.4820391 91.468837,63.3845138 C98.1459292,59.5283436 98.2777139,55.7512744 91.9276431,49.6209526 C91.4639561,49.3391555 91.0149119,49.042527 90.5512249,48.7706176 C81.8924812,46.7881506 80.8479653,43.8218659 86.1876866,36.4605359 C86.5586362,36.020537 86.9979186,35.6497514 87.4713674,35.3234601 C90.3364647,34.0380701 92.3278781,31.5809975 94.7878594,29.7715638 C96.9012958,28.2192082 99.2929443,25.6088776 101.98721,29.1585317 C102.065304,31.4425709 101.557689,33.6573969 101.162335,35.8821104 C99.6394893,40.2326614 101.220906,43.5746755 104.700998,46.0218604 C107.380621,47.9005074 110.30917,48.6964605 113.091292,45.9921976 C114.248069,44.8304027 115.63913,44.0097306 116.991143,43.124789 C122.257651,37.5086232 121.842773,33.0245894 115.561035,27.9472987 C113.462241,26.6075268 110.36286,27.0079752 109.13287,24.1652857 C110.206671,19.7504652 111.895468,15.998115 117.376736,16.359013 C123.575498,21.6192246 129.012838,27.6803331 134.718628,33.4596445 C134.904103,35.3827858 133.898634,36.9005348 132.800428,38.2155877 C126.84083,45.3198397 122.980026,54.2038625 115.356037,59.8447473 C113.232838,61.4168782 117.513401,62.1188989 115.356037,63.1521548" id="Fill-2" fill="#D35526" sketch:type="MSShapeGroup"></path>
            <path d="M0.642264465,137.883352 C1.75939344,136.821032 2.69443531,135.375096 4.01825775,134.755409 C11.2033163,131.415985 15.7554939,125.597813 19.5153465,118.953392 C25.7505994,114.212296 27.9011957,107.120323 30.3273833,100.180813 C35.0173564,93.19704 39.8451253,86.3263842 46.6955373,81.2016718 C47.4238857,80.586903 48.2260532,80.62133 49.0577483,80.9311735 C49.9927902,84.452569 46.7103011,85.5198076 45.1797852,87.6051033 C43.7723011,88.7461141 42.3697383,89.8871249 41.6364686,91.6281501 C38.5803581,95.9659585 35.947477,100.40213 34.9878288,105.82685 C34.2299527,110.135149 30.3126194,112.963086 28.6885993,116.538581 C31.6462844,115.968075 33.4327065,109.490871 38.127601,114.536894 C38.1669712,114.581157 40.4947333,112.756523 41.9268237,112.146673 C43.9002542,111.295833 45.6374636,108.792494 48.1916043,110.990907 C42.1630448,118.382887 36.218147,125.887984 25.4061102,126.040447 C18.9690851,131.470085 11.1442611,135.080007 5.32731637,141.321139 C1.98085072,142.604777 -0.893172713,143.239218 0.642264465,137.883352" id="Fill-3" fill="#E2DCB1" sketch:type="MSShapeGroup"></path>
            <path d="M147.852752,11.9682594 C148.714999,14.7477751 147.812648,17.2503112 146.559381,19.6945357 C143.726999,20.5643492 143.431228,23.4167543 141.937335,25.3215973 C140.543702,27.1049579 139.816808,29.5054488 136.994452,29.7872878 C129.113912,26.9543199 124.66231,20.9287962 121.288517,13.8973988 C125.995786,8.34322659 132.693241,6.13710744 139.340567,3.84352101 C143.526476,5.2235603 146.544342,7.7601114 147.852752,11.9682594" id="Fill-4" fill="#616060" sketch:type="MSShapeGroup"></path>
            <path d="M87.6577081,97.3468782 C87.5332048,98.9507678 87.4136818,100.549645 87.2941587,102.148523 C83.2552743,104.524284 78.7482579,106.012894 74.9085787,108.764568 C68.6385967,111.706703 62.9861507,116.558469 54.0268992,116.252727 C56.5866853,113.977209 57.8864989,112.819401 59.1863125,111.666605 C64.5001098,109.345978 64.4851694,102.920395 68.4045307,99.5271656 C69.8338276,98.6249777 68.3597095,102.749981 70.7202905,100.790229 C72.5380374,99.28157 74.6545921,98.0987014 76.4225378,96.4797753 C79.0968669,95.2668338 80.9544549,92.5151606 84.1417372,92.2445043 C85.8997226,93.5376403 86.5122785,95.627709 87.6577081,97.3468782" id="Fill-5" fill="#F8C238" sketch:type="MSShapeGroup"></path>
            <path d="M50.9040354,57.8951766 C52.7332674,54.5140006 53.7533218,49.663623 59.2998673,53.0196415 C59.4764152,56.4511327 60.2561683,59.5958277 63.257482,61.6839051 C64.0176187,63.4449343 63.5468244,65.0248291 62.6003316,66.5393142 C60.3052093,69.407276 58.9565798,73.0148701 56.0582523,75.4249643 C54.7978967,76.1645966 53.4492671,75.5759097 52.1496787,75.7016975 C50.4920903,77.5885145 48.3097625,77.3470019 46.1617635,77.2664977 C42.9348608,78.5143127 41.5273819,77.779712 43.2143949,74.2073384 C44.7640928,70.9368557 47.2112425,68.3154379 50.065433,66.2676125 C52.8754866,64.2499762 52.9833769,62.448695 50.4332411,60.2750818 C50.1537069,59.3895357 50.246885,58.5844938 50.9040354,57.8951766" id="Fill-6" fill="#F2A226" sketch:type="MSShapeGroup"></path>
            <path d="M69.1257392,99.0666042 C66.513085,103.42612 67.1810932,110.386651 59.6152823,110.817705 C52.0346267,110.778518 46.3144976,114.584522 41.5840102,119.884518 C37.1256743,124.880818 32.3209638,128.299854 25.2004916,126.213164 C25.8932408,125.55189 26.7096952,124.22934 27.2589464,124.332205 C37.5759613,126.232758 39.9807906,115.539697 46.9973504,112.252916 C47.3882589,112.066779 47.4674302,111.238961 47.6900996,110.709941 C48.1205937,107.202735 51.1439492,106.477782 53.677432,105.214012 C61.3966374,104.327414 61.3966374,104.327414 62.3763827,97.3619844 C62.7722393,94.4033914 64.5684391,92.5567199 67.2157306,91.38112 C69.4374763,91.0088467 70.9664727,91.660325 71.3227438,94.0703047 C71.258417,96.0247395 70.8081301,97.812631 69.1257392,99.0666042" id="Fill-7" fill="#F2F0EB" sketch:type="MSShapeGroup"></path>
            <path d="M51.7198482,60.7453416 C53.4417362,61.0938417 55.6164907,61.1934131 55.9250371,63.2794352 C56.1788414,64.9970428 54.3325395,65.8035716 53.0237056,66.6748219 C49.6695076,68.8952654 47.0617928,71.7927948 44.9168977,75.1981387 C42.8167915,78.528804 45.9520211,76.9804678 46.8975665,77.4733465 C41.6025121,79.2009113 35.9491457,80.3559402 33.3513841,86.2754634 C32.9084707,87.2761565 32.435698,88.983807 30.9825439,88.2021711 C29.539343,87.4255137 29.8827253,85.7527132 30.7984114,84.6076415 C33.1324157,81.7001549 34.8095147,78.4391896 36.3422936,75.0836315 C40.4877638,72.2358878 41.2392236,67.2374006 43.6926652,63.3142852 C45.7778417,59.9885985 47.9725024,58.2759694 51.7198482,60.7453416" id="Fill-8" fill="#FAC33A" sketch:type="MSShapeGroup"></path>
            <path d="M115.229582,63.4180967 C114.851317,60.1477675 113.255817,63.4682551 111.679714,62.3497223 C120.583481,53.9331389 126.89759,43.5352979 133.861538,33.6490727 C136.780964,33.4333915 136.984645,35.1538254 136.39785,37.4410495 C130.5299,47.1366726 123.837526,56.1150303 115.229582,63.4180967" id="Fill-9" fill="#D7633B" sketch:type="MSShapeGroup"></path>
            <path d="M136.93766,37.4743299 C136.893845,35.6876901 136.105181,34.4136109 134.39154,33.7790121 C128.238012,29.0048763 122.517762,23.7914029 118.038928,17.338021 C117.644596,16.9621432 117.449864,16.5032794 117.444996,15.9565481 C117.970772,14.1455007 119.31929,13.5255465 121.047536,13.4523235 C121.281214,13.5792433 121.514893,13.7061631 121.743703,13.8282013 C126.188459,19.4712493 130.209672,25.5292273 136.752664,29.0976254 C138.149866,29.6882904 140.02416,29.536963 140.506122,31.5383901 C139.313389,33.5154095 138.125524,35.4973104 136.93766,37.4743299" id="Fill-10" fill="#998D69" sketch:type="MSShapeGroup"></path>
            <path d="M70.4907923,95.127145 C70.386221,92.6797915 68.5288348,92.823462 66.8556933,92.694654 C66.0041838,92.7640122 65.2572457,92.4816252 64.5601034,92.0258428 C62.4985541,90.4306042 60.1382296,89.2316982 58.2509659,87.423431 C55.4524376,86.4524162 55.7910496,89.6924348 54.2473774,90.4058334 C53.8241125,90.7773952 53.3311333,91.0102406 52.7783991,91.1241862 C51.0504821,91.0944613 50.3334215,90.0788591 50.1890135,88.5083913 C50.0296667,85.3129601 53.2962762,83.9307503 54.0780714,81.2356889 C53.9237042,80.0021038 54.1179081,78.7635646 53.9784797,77.5349337 C53.4357046,76.9751139 52.8979092,76.4152942 52.3601137,75.8554745 C53.346072,74.7606058 54.6606832,75.0727177 55.8906413,75.0281303 C59.0028836,76.628323 62.1051667,79.2738428 65.2273682,75.0330844 C66.666469,74.042253 68.0707127,72.967201 69.7239358,72.3875646 C71.7107913,71.6890285 73.2196063,72.0060945 73.2445043,74.5673937 C72.4826274,76.945389 70.107364,77.7578707 68.5537327,79.3729259 C63.3152065,83.8316672 63.3152065,84.1784582 68.7728346,87.9386633 C69.7239358,88.592612 70.7198533,89.1672942 71.3721793,90.1630798 C72.1091583,91.9961178 73.4785449,93.9480557 70.4907923,95.127145" id="Fill-11" fill="#F0C936" sketch:type="MSShapeGroup"></path>
            <path d="M69.4009833,49.4193358 C81.288617,33.1237947 96.3224,20.4093695 114.006605,10.7149862 C115.223836,10.2417324 115.439796,10.9979626 115.523235,11.9249545 C111.876451,16.6233396 106.207493,18.7115107 101.775398,22.429236 C96.7543206,26.6446095 91.0068313,30.0256903 86.9330344,35.3241806 L86.9330344,35.3290595 C82.8346966,38.271039 79.3204332,41.7692135 76.2331824,45.7650363 C74.8687058,47.5263209 73.4158819,49.4925194 70.9077973,49.9657731 C70.3384474,49.9608942 69.8329039,49.7852537 69.4009833,49.4193358" id="Fill-13" fill="#B15033" sketch:type="MSShapeGroup"></path>
            <path d="M87.0994198,97.0489055 C83.9639983,96.8257953 83.6499413,94.7450504 83.6808321,92.436345 C82.7386611,91.0588821 82.8210368,89.414657 82.3628224,87.9159386 C82.2907438,86.3638678 80.9881795,85.1658631 80.9315463,83.6040918 C81.7141145,82.1538756 83.0887575,81.9986685 84.5869638,82.1005232 C87.2693195,85.9515989 89.5758365,80.7812629 92.1346287,81.8143601 L92.4023495,82.1684262 C92.4023495,85.4180746 92.2170043,88.6725732 92.4486857,91.9028206 C92.7164065,95.6762929 88.9116831,95.3755791 87.0994198,97.0489055" id="Fill-14" fill="#E79B18" sketch:type="MSShapeGroup"></path>
            <path d="M139.298543,3.94778777 C132.929785,6.27632581 127.446682,10.1865123 121.605337,13.4523235 L121.351582,13.4474419 C119.286712,12.4467075 117.490523,11.3092875 118.918518,8.61462711 C122.729821,6.45206453 126.431662,4.21139585 131.233108,4.77278343 C133.949781,5.09008945 135.551922,1.77546193 138.427814,1.92679249 C139.074641,2.45400865 139.99015,2.8689473 139.298543,3.94778777" id="Fill-15" fill="#7C7C7C" sketch:type="MSShapeGroup"></path>
            <path d="M30.0048929,100.892427 C29.6536927,109.209818 27.4598942,116.414532 19.4352101,120.110032 C22.1534035,113.222506 25.1602545,106.506162 30.0048929,100.892427" id="Fill-16" fill="#F0EFE9" sketch:type="MSShapeGroup"></path>
            <path d="M139.478006,4.12104018 C139.17672,3.45750082 138.880541,2.79396146 138.584361,2.1304221 C140.861877,1.30821028 143.200672,0.81295989 145.656917,1.00048188 C149.175321,2.56797341 148.312317,6.35207107 150.114924,8.78504872 C150.104711,10.179443 149.35405,11.0593539 147.990605,11.530563 C145.156476,9.06392759 142.317241,6.59248388 139.478006,4.12104018" id="Fill-17" fill="#E0D526" sketch:type="MSShapeGroup"></path>
            <path d="M62.6847759,62.176537 C57.7949866,60.6033774 56.6898639,58.0273285 59.0969119,53.8092942 C61.1406319,53.9469456 63.300415,53.48483 65.0918239,54.915422 C65.7579252,55.8150727 65.7125092,56.6803105 64.935391,57.5013032 C64.8849288,57.8405157 64.8647439,58.1846444 64.8798825,58.5287731 C64.9000674,59.8167975 64.7184034,61.0605769 64.0472559,62.2060338 C63.5880497,62.5599947 63.1288434,62.5304979 62.6847759,62.176537" id="Fill-18" fill="#E38D0F" sketch:type="MSShapeGroup"></path>
            <path d="M140.599044,31.7090483 C139.286897,30.8766717 137.974749,30.0492793 136.662601,29.2169026 C140.047636,26.7297412 141.339361,22.8220568 143.361192,19.4626444 C144.811192,17.045263 145.337073,18.9044037 146.271403,19.5324244 C145.056263,23.8936794 143.376509,28.0455942 140.599044,31.7090483" id="Fill-19" fill="#767674" sketch:type="MSShapeGroup"></path>
            <path d="M51.1442585,60.370906 C46.2086302,59.32313 44.2980644,62.6992972 42.1785305,66.2931185 C40.3624979,69.3706442 40.4371294,74.0324884 35.7701744,74.9486597 C37.7802488,71.1219994 40.0490457,67.4117586 41.7406925,63.4433701 C43.6114548,59.0599205 46.3777949,56.8985661 51.1343076,57.8906632 C51.139283,58.7157236 51.1442585,59.5407839 51.1442585,60.370906" id="Fill-22" fill="#DAB72E" sketch:type="MSShapeGroup"></path>
            <path d="M149.7678,8.64792227 C145.831902,7.25136079 147.431819,2.96758176 145.310523,0.63007459 C151.960658,-0.702106403 151.960658,-0.702106403 149.7678,8.64792227" id="Fill-26" fill="#D6B02E" sketch:type="MSShapeGroup"></path>
            <path d="M54.1817942,76.8704202 C54.7691042,77.9374557 55.3564143,79.0044912 55.9486597,80.0715267 C53.6043549,83.0371841 50.347005,84.9708728 47.701642,87.5958804 C46.3098653,88.412438 44.9032824,88.8432599 43.4572164,87.7261288 C45.3918848,85.7323254 47.3216179,83.738522 49.2513509,81.7447185 C49.4635722,79.0245294 52.3112857,79.3902271 53.5895487,77.9174175 C53.7869639,77.5667486 53.984379,77.2210892 54.1817942,76.8704202" id="Fill-30" fill="#B76D30" sketch:type="MSShapeGroup"></path>
            <path d="M118.993267,8.64792227 C118.880617,10.8543951 120.753428,11.9733174 121.288517,13.8242448 C120.180789,14.6451364 119.077755,15.4660279 117.970027,16.2869195 C115.26642,16.6790651 115.505801,14.5980789 115.533964,12.6896367 C115.210094,12.2242906 114.886225,11.7537158 114.562355,11.2883696 C115.77804,9.86618808 117.336369,9.1498687 118.993267,8.64792227" id="Fill-31" fill="#A9A278" sketch:type="MSShapeGroup"></path>
            <path d="M74.2053845,108.579469 C77.5002727,104.673297 82.0508346,103.168962 86.6968278,101.853307 C83.4170078,105.784975 78.5098344,106.605985 74.2053845,108.579469" id="Fill-39" fill="#D4AE44" sketch:type="MSShapeGroup"></path>
            <path d="M65.5574622,57.6528152 C65.6103171,56.7145909 65.663172,55.7816974 65.7213124,54.848804 C68.2107775,54.0598427 68.7657538,51.2025233 70.8429508,49.9657731 C71.2287915,49.9870964 71.6146322,49.9870964 72.0004728,49.9657731 C72.2647473,50.2536374 72.3440296,50.5361709 72.2383198,50.8080427 C72.1378955,51.0745836 72.0374713,51.2078541 71.947618,51.2078541 C69.4158689,52.9510322 69.2573043,57.0824175 65.5574622,57.6528152" id="Fill-43" fill="#AD4521" sketch:type="MSShapeGroup"></path>
            <path d="M53.066019,77.940901 C52.4459435,80.059642 50.2449124,80.3334928 48.9053601,81.6114636 C48.0533481,81.5393975 47.1966026,81.4673315 46.3398572,81.3952655 C48.1669497,79.4110478 49.9419748,77.3259376 53.066019,77.940901" id="Fill-46" fill="#F2EBD7" sketch:type="MSShapeGroup"></path>
            <path d="M64.2755477,61.1002394 C62.9607657,59.4066797 63.8471356,58.4317521 65.3539643,57.6528152 C70.3028627,58.4317521 73.774478,61.5123221 76.3991177,65.5426927 C79.693459,70.613321 84.1450054,74.4175485 88.7885987,78.0308109 C90.1920176,79.1213227 91.7825591,79.9253866 92.4621093,81.7295051 C90.3200488,82.6893564 88.8082958,86.5388126 85.7404712,83.2572266 C84.0957627,81.7998607 81.9487779,81.3827525 80.0677041,80.407825 C73.5233399,75.0658251 68.5153502,68.4071705 64.2755477,61.1002394" id="Fill-47" fill="#AD4521" sketch:type="MSShapeGroup"></path>
            <path d="M115.851956,12.4914433 C116.703263,13.6450146 117.554569,14.7935705 118.405876,15.9421263 C118.400955,16.3584151 118.396034,16.7747039 118.391114,17.1859772 C113.283273,16.7747039 112.505779,21.4943154 110.183138,24.3782438 C108.16067,27.2722033 105.400074,28.8771721 101.950559,29.2934609 C98.6437485,28.0145014 96.7787469,30.2915509 94.7415157,32.2626533 C92.7239678,34.2187091 91.1394545,36.9822648 87.6899397,36.4456033 C87.51771,34.5246562 88.0196366,32.8544855 89.5844664,31.6658055 C98.2107139,25.0904487 106.320272,17.7778094 115.851956,12.4914433" id="Fill-48" fill="#DE6B40" sketch:type="MSShapeGroup"></path>
            <path d="M101.867605,28.8028669 C104.243554,26.5392758 107.082738,25.041598 110.200859,24.0220063 C112.556884,24.836704 114.912909,25.6465232 117.268933,26.4612209 C117.587719,28.0515888 116.347444,28.3247809 115.271542,28.7345689 C111.95418,29.3882784 108.088905,28.3930789 105.688051,31.7982224 C103.217463,36.9156947 106.544787,39.271976 110.425005,41.3550652 C112.367605,42.4136844 114.449673,41.6282573 116.462007,41.7697317 C117.49806,42.0770728 118.678563,42.2526962 118.349816,43.784523 C117.20418,44.6040991 116.063525,45.4285536 114.91789,46.2530081 C106.65437,49.0532265 100.189,44.5553148 100.149151,35.9790363 C100.517747,33.5398217 100.477899,31.0079169 101.867605,28.8028669" id="Fill-49" fill="#E3C921" sketch:type="MSShapeGroup"></path>
            <path d="M71.3227438,51.0239849 C71.3619452,50.6438518 71.3815459,50.2587818 71.3717455,49.8737119 C76.0122136,47.1880959 77.9624842,41.9402837 81.931628,38.5931372 C83.6956918,37.1022254 85.1216435,35.1768757 87.8020406,35.6162504 C87.3414239,36.6628507 87.0229123,37.7983134 86.40549,38.7363043 C83.5535867,43.0411888 84.6806275,45.4849019 89.9042167,46.3340305 C90.7911488,46.4821343 91.6143786,47.0548024 92.4621093,47.4299988 C89.5759048,49.7009241 86.3466878,49.4047164 83.063569,48.7086285 C80.2067655,45.1195791 78.1143897,48.4864727 75.7819052,49.5330731 C74.3412531,50.1797931 73.7630321,53.4035197 71.3227438,51.0239849" id="Fill-50" fill="#DD6B3F" sketch:type="MSShapeGroup"></path>
            <path d="M82.351276,48.4467939 C85.4223495,46.7241918 88.7776877,47.0986705 92.0924167,47.1585871 C92.0873405,47.1535941 91.9756651,47.3233578 91.9756651,47.3233578 C91.7726189,50.384097 88.7726116,49.2606609 87.275146,50.3890901 C85.929965,51.0531657 85.0365618,52.1166852 84.4984894,53.4797877 C83.9756455,54.9177859 84.2903671,56.240944 85.0619426,57.5041855 C86.6253982,60.3352445 89.8842894,60.7796258 92.2447013,62.4722696 C92.564499,62.9915467 92.5391183,63.4808656 92.1177974,63.9352331 C85.5594057,66.0073485 78.9096432,60.5149942 80.1126918,53.8492733 C80.4527942,51.9768798 81.5847767,50.2442917 82.351276,48.4467939" id="Fill-51" fill="#E7CA1F" sketch:type="MSShapeGroup"></path>
            <path d="M118.344837,44.2004916 C117.821507,43.3042834 116.894022,43.245835 115.966537,43.1873867 C118.691996,37.8929392 117.147915,32.9491819 114.562355,28.0882264 C115.59347,27.9859418 116.624585,27.8739158 117.220456,26.9046471 C124.769875,32.2965085 125.225846,39.2567343 118.344837,44.2004916" id="Fill-52" fill="#E6A722" sketch:type="MSShapeGroup"></path>
            <path d="M86.6968278,50.1306853 C88.1803887,48.0783814 91.235387,50.1159558 92.7086096,48.0440126 C96.8594787,49.9932104 99.6146633,52.752528 99.1339275,57.5690594 C98.7617449,61.3250702 96.8026174,63.6474141 92.8533472,64.3789769 C92.8533472,63.9272737 92.8533472,63.4755704 92.848178,63.0238672 C92.6465791,62.4543283 92.6620868,61.8749698 92.8636856,61.3152505 C95.4689634,54.1665556 95.4689634,54.1665556 88.0718355,51.2353943 C87.4980541,51.0046329 87.0276567,50.6462161 86.6968278,50.1306853" id="Fill-53" fill="#DEA223" sketch:type="MSShapeGroup"></path>
            <path d="M99.9465137,36.5134496 C101.726048,44.6920026 105.25061,47.2500077 114.562355,47.1390095 C111.649046,51.4578505 107.853364,50.0501909 104.733017,48.0320409 C100.823957,45.4992626 97.6888222,42.0179538 99.9465137,36.5134496" id="Fill-54" fill="#BA4F1B" sketch:type="MSShapeGroup"></path>
            <path d="M65.1524631,91.4475122 C65.6077562,91.7496922 66.0630494,92.0469185 66.5183425,92.3441448 C65.1524631,94.3454683 63.7816349,96.3517456 62.4108067,98.3530691 C60.9657459,102.984845 56.680052,104.446207 53.1069907,106.705127 C51.1324043,108.225935 49.1528689,109.746743 47.1782825,111.26755 C42.8529978,112.862665 39.5273785,116.5879 34.2271727,117.747083 C35.1872473,116.201506 35.7266707,115.329643 37.2509129,112.887433 C32.4307444,115.914188 29.1001762,118.009633 25.769608,120.110032 C25.5766033,119.852435 25.3885475,119.589886 25.2004916,119.33229 C25.952715,118.083939 26.5119338,116.647346 27.4868549,115.612007 C34.0193215,108.681682 33.0444003,97.8428307 40.2251647,91.279084 C42.5857605,90.4963882 44.9414076,89.6889235 47.3564406,91.0759794 C48.1334083,94.4940814 44.9908959,95.6631714 43.4913979,97.7685241 C42.051286,99.7896627 39.26509,101.830616 40.9674904,104.322363 C42.3086256,106.28901 44.7533517,103.282071 46.8467103,103.703142 C48.999455,104.802879 50.9542461,104.837555 52.4834371,102.62322 C54.9232144,100.319716 57.2590661,97.9171372 59.6147131,95.5343733 C61.4012437,94.092826 62.6137091,91.8685827 65.1524631,91.4475122" id="Fill-55" fill="#BB4616" sketch:type="MSShapeGroup"></path>
            <path d="M47.4298896,91.6202884 C45.166886,90.8682399 42.8061284,93.5028671 40.5773386,91.4335051 C40.4991354,89.5066882 42.0974123,88.9659997 43.2948981,88.1008983 C44.8540734,88.2778508 46.0466714,87.4176647 47.2832587,86.6607009 C49.4582838,85.8988218 49.6049147,87.702755 50.1718876,88.9758304 C50.3185185,90.9616316 49.0428296,91.4679125 47.4298896,91.6202884" id="Fill-56" fill="#E8B355" sketch:type="MSShapeGroup"></path>
            <path d="M81.7630006,84.0545692 C84.0202871,84.2995379 83.7945585,85.9996206 83.814187,87.5527221 C80.2319715,89.7770377 80.0651286,94.5588265 76.7331774,96.964419 C75.192334,99.1985334 73.0135618,100.491968 70.5305466,101.506138 C67.286924,102.833869 69.0780318,99.9824332 68.440103,99.1691372 C68.6707388,97.5327463 68.8424889,95.8718587 69.9416892,94.5098328 C71.7377042,92.8783413 70.2115822,91.4232273 69.696332,89.9191196 C71.7131685,88.1406469 74.5691266,87.6213133 76.3504201,85.480287 C78.0188493,84.5053116 79.4958998,82.7660339 81.7630006,84.0545692" id="Fill-57" fill="#F29C23" sketch:type="MSShapeGroup"></path>
            <path d="M77.0880253,97.0489055 C78.2749701,94.085164 79.6258028,91.1775345 80.5942306,88.1423775 C81.4484336,85.4438933 82.8538954,86.7140683 84.254391,87.2496842 C84.3239192,88.8871387 85.3966392,90.5245932 84.2444585,92.1569465 C81.8010406,93.7025811 79.9535783,96.1562123 77.0880253,97.0489055" id="Fill-58" fill="#F9AE34" sketch:type="MSShapeGroup"></path>
            <path d="M64.13186,61.4963362 C68.4209208,64.7442787 71.0011346,69.5710823 74.3074874,73.6861453 C76.180926,76.021857 78.0737282,78.1320173 80.4070548,79.881295 C81.3558764,81.1092979 80.9492385,82.4676196 79.734166,82.5578402 C77.2168842,82.7432937 74.2832828,82.6330241 72.2210481,81.8360752 C68.6484444,80.4526923 71.4707045,77.2899581 71.9935246,74.8640257 C72.0032064,73.5207408 71.7224327,72.4731791 70.1346088,73.3854098 C68.5322621,74.3026529 66.9880066,75.3351778 65.4147055,76.3175802 C60.7383705,74.5081554 59.7508215,71.1800168 61.692033,66.6439241 C62.9651967,65.2655535 62.9700376,63.5062512 63.0862198,61.7770226 C63.4492893,61.7319123 63.797836,61.6416916 64.13186,61.4963362" id="Fill-59" fill="#61605C" sketch:type="MSShapeGroup"></path>
            <path d="M61.7505745,66.3007374 C61.0426617,70.4196213 63.2654089,73.3316002 65.5574622,76.2127646 C61.7159214,80.6654731 58.329821,81.6464043 55.9486597,74.8671941 C58.6813022,72.59205 58.65655,68.3036859 61.7505745,66.3007374" id="Fill-60" fill="#DD7513" sketch:type="MSShapeGroup"></path>
            <path d="M53.066019,106.633466 C56.1748839,103.758906 59.2837489,100.884346 62.3876555,98.0097858 C63.3148609,106.019681 62.4372387,106.827832 53.066019,106.633466" id="Fill-61" fill="#E5DAB5" sketch:type="MSShapeGroup"></path>
            <path d="M47.5811792,91.3219859 C48.3640042,90.4230813 49.1468292,89.5291986 49.9296542,88.630294 C49.7691994,87.5506042 50.2457016,87.2543172 51.1889814,87.5455824 C51.2278795,89.1776717 52.1030876,89.9359654 53.6152527,90.0313799 C54.4078023,92.5774391 51.6508968,93.5818018 51.1695323,96.0073375 C54.5633948,94.1442448 57.787078,92.7029845 60.753061,96.1831009 C58.7789805,98.9902945 56.2360148,101.184827 53.6006659,103.278923 C51.6897949,104.192893 49.579571,103.781104 47.6054905,104.263198 C46.2100198,104.926078 44.8242737,105.62411 43.4142162,106.251836 C42.3250683,106.73393 40.2294312,108.461434 40.2829161,107.115588 C40.3655746,105.051623 37.2585859,103.781104 39.4174325,101.410808 C42.3202061,98.2219571 44.8777586,94.7016661 47.5811792,91.3219859" id="Fill-62" fill="#F2A735" sketch:type="MSShapeGroup"></path>
            <path d="M61.012312,96.7650113 C57.8365968,96.2474153 54.6608816,95.3557152 51.8287524,98.020566 C51.0090546,98.7943977 49.5758107,99.5016081 48.7021209,98.4100442 C47.4210364,96.806009 49.2665834,96.0065538 50.0273807,95.0277335 C51.2348396,93.4698207 52.540466,91.9939033 53.8068253,90.4872377 L53.7724667,90.4923624 C55.0977265,88.7960823 55.8536155,86.3464694 58.582669,86.4848367 C61.331356,87.6378971 63.8100827,89.1906852 65.5574622,91.7837901 C64.040776,93.4441972 62.5289982,95.1046042 61.012312,96.7650113" id="Fill-63" fill="#F2D78B" sketch:type="MSShapeGroup"></path>
            <path d="M78.0489055,86.431071 C76.4851493,89.5475251 73.9211982,90.6616447 70.5906005,90.2355068 C70.1336587,89.865845 69.7224111,89.4037678 69.2146981,89.1367898 C60.822201,84.7521904 60.6546557,83.3813613 67.8641813,77.8313005 C71.2150876,80.7475212 75.8251223,82.1440212 78.0489055,86.431071" id="Fill-64" fill="#DE7413" sketch:type="MSShapeGroup"></path>
            <path d="M77.4068427,87.440103 C73.9079258,84.7789276 69.854725,82.8180615 67.4792227,78.75108 C69.052993,77.4801482 70.6317122,76.214404 72.2104315,74.9486597 C73.6951204,75.768281 72.4727265,76.5049026 72.2401252,77.3971486 C71.5819131,79.9234496 71.7155351,79.7678253 74.5166482,79.7263255 C75.7093483,79.7107631 76.9812319,80.7897582 78.0996975,81.5575047 C79.9011201,82.8024991 80.5642811,81.9932527 80.8067803,80.1413236 C83.3060067,80.2139483 84.6521246,81.9154406 85.7359475,83.9852437 C84.5630433,84.2342426 83.1030992,83.5183708 82.3013672,85.0746137 C80.6731583,85.8631102 79.0400005,86.6516066 77.4068427,87.440103" id="Fill-65" fill="#5F5D5B" sketch:type="MSShapeGroup"></path>
            <path d="M51.1779689,88.2682153 C50.7460493,88.6327647 50.3141298,88.9973141 49.8771879,89.3618635 C49.0183711,88.5618801 48.1595543,87.7669598 47.3007374,86.9669764 C49.831987,84.4151304 52.5088839,82.0607488 55.9039726,80.7139412 C56.4664725,84.592342 51.539576,84.9771441 51.1779689,88.2682153" id="Fill-66" fill="#F1DA81" sketch:type="MSShapeGroup"></path>
            <path d="M58.1135631,86.5213669 C56.4293315,87.7852518 54.7451,89.0539978 53.066019,90.3227438 C53.0814706,87.3769197 55.7597593,86.1956734 57.5109481,84.4310957 C58.1444664,83.7942921 59.2827391,82.9387393 59.7771924,84.4019291 C59.9420102,84.8928998 58.7058769,85.8019247 58.1135631,86.5213669" id="Fill-67" fill="#F2A735" sketch:type="MSShapeGroup"></path>
            <path d="M114.34277,27.9884436 C120.692586,34.8662399 120.879941,36.9664063 115.715019,43.4162066 C113.694623,43.8093657 111.6641,44.9838664 109.653832,43.3813697 C107.435953,40.8333005 108.514511,39.4099649 111.167863,37.976676 C114.018697,36.428923 113.289531,34.9757272 110.448824,34.2491294 C108.139801,33.6519256 105.618104,33.5872286 103.992672,31.4771087 C106.357396,27.207102 110.433634,27.8341659 114.34277,27.9884436" id="Fill-68" fill="#9396A0" sketch:type="MSShapeGroup"></path>
            <path d="M104.149532,30.7481681 C105.500396,31.0373963 106.856358,31.3169835 108.202125,31.6254935 C110.806998,32.2184113 114.752541,31.3266244 115.43562,34.3394179 C116.108503,37.2943657 112.769575,38.2681005 110.078042,39.2129125 C108.732275,39.6804981 110.10353,41.2375097 109.853747,42.2787311 C103.094329,39.2225535 101.717977,36.4411426 104.149532,30.7481681" id="Fill-69" fill="#B6ADB3" sketch:type="MSShapeGroup"></path>
            <path d="M86.5183894,50.056847 C90.4244595,49.6752424 93.9536727,50.3824829 95.7411963,54.3053784 C97.5134419,58.1875694 94.7379423,60.7570405 92.5786546,63.4180967 C88.9272175,63.3977444 85.8614363,62.3343396 84.1961365,58.7523442 C85.1280933,57.3836557 86.7577444,57.1190765 88.1174846,56.3202508 C86.9869141,54.8854174 84.62392,55.511249 83.814187,53.6693707 C84.0331714,51.954694 85.2095758,50.9574339 86.5183894,50.056847" id="Fill-70" fill="#9D9EA5" sketch:type="MSShapeGroup"></path>
            <path d="M83.654873,52.8484139 C86.5052865,52.9589151 89.2326252,53.4201377 92.4621093,55.5340742 C89.0898584,56.5526073 86.7514362,57.7248812 84.0240975,57.6480108 C83.0690367,56.105798 82.1385908,54.5683896 83.654873,52.8484139" id="Fill-71" fill="#CAB8B3" sketch:type="MSShapeGroup"></path>
            <path d="M47.3007374,103.652517 C49.297311,101.98539 51.4302625,101.082162 54.0268992,102.710854 C52.0303256,104.406808 50.4919821,108.60105 47.3007374,103.652517" id="Fill-72" fill="#E2671F" sketch:type="MSShapeGroup"></path>
        </g>
    </g>
</svg>