<?xml version="1.0" encoding="UTF-8" standalone="no"?>
<svg width="60px" height="99px" viewBox="0 0 60 99" version="1.1" xmlns="http://www.w3.org/2000/svg" xmlns:xlink="http://www.w3.org/1999/xlink" xmlns:sketch="http://www.bohemiancoding.com/sketch/ns">
    <title>tower</title>
    <description>Created with Sketch (http://www.bohemiancoding.com/sketch)</description>
    <defs></defs>
    <g id="Page-5" stroke="none" stroke-width="1" fill="none" fill-rule="evenodd" sketch:type="MSPage">
        <g id="Tower" sketch:type="MSLayerGroup" transform="translate(29.500000, 50.000000) rotate(-1.000000) translate(-29.500000, -50.000000) translate(0.000000, 1.000000)">
            <path d="M0.00101894458,88.8863227 C-0.021413855,87.060356 0.327362766,85.2845532 0.967765782,83.592709 C1.15844458,83.0894857 0.996607953,82.4743176 1.46182149,82.0724782 C2.40453318,81.7350598 3.25430899,81.6954567 3.96681743,82.594711 C4.17672434,82.8597877 4.61523216,82.9727886 4.96988404,83.0963502 C6.00072459,83.4554183 7.04919091,83.7653785 8.07682678,84.1323672 C8.63978322,84.3335509 9.04357362,84.6767777 8.77331179,85.37168 C8.50625466,86.0570776 8.90577213,86.4451879 9.48154732,86.5972638 C10.125155,86.7667651 10.7741039,87.0371222 11.4727253,86.8797659 C11.6318914,87.7425853 12.125413,88.1792755 13.0248614,88.3788751 C15.8850434,89.0130526 18.7153149,89.7771283 21.5776333,90.4007451 C22.6624194,90.6367795 23.6921917,91.2630365 24.8736525,90.97631 C26.7804405,90.3521653 28.5472905,89.4465745 30.2244093,88.3619777 C31.8534578,88.4770907 33.4552665,88.1639623 35.0704281,88.0631064 C36.7176365,87.7436414 38.3584356,87.3988305 39.9527667,86.8697331 C41.0135176,86.6453156 41.8980109,86.0333157 42.842859,85.5612468 C43.5911531,85.1873936 43.4453399,84.3900513 43.2252849,83.8794354 C42.9470113,83.2331129 42.4070218,83.8076218 42.0518358,83.9850437 C41.3382591,84.3409435 40.5306783,84.5463515 39.9602443,85.1546551 C38.3279911,85.5205877 36.696272,85.8870483 35.0640187,86.253509 C34.0166206,86.3105374 32.9670861,86.3422199 31.9228927,86.4346271 C31.3225482,86.4879593 30.6356773,86.2640698 30.1645885,86.8618125 C29.5845404,86.8068962 29.0979623,87.0619401 28.6055089,87.3117037 C27.3311123,87.9580262 26.0519086,88.5948439 24.7748414,89.235358 C20.5927266,88.2484489 16.3716215,87.4178399 12.2552028,86.1690223 C12.5751372,85.4883772 13.0804093,85.6383409 13.6620597,85.7956972 C17.0862664,86.7234657 20.5355764,87.5128874 24.1248243,87.3877416 C24.2578187,87.3998865 24.3908132,87.4120315 24.5243418,87.4241764 C24.5969813,87.815455 24.7646932,87.9833721 25.1337661,87.6765802 C27.1714121,86.8237935 29.1278727,85.8073141 31.0715145,84.7665447 C31.9100739,84.8753212 32.7224618,84.6582963 33.546066,84.5759218 C33.8376924,84.6007398 34.1250458,84.6102445 34.3232022,84.3372472 L34.4439121,84.3404154 L34.5592807,84.3071488 C35.472082,84.1867554 36.4169302,84.1925639 37.215431,83.6328401 C38.1907237,83.1396496 39.696926,83.3144313 39.711347,81.6273394 C39.7733043,74.3007668 39.6114677,66.9726101 39.9388797,59.6470936 C40.0563849,57.0200883 39.9581078,57.015864 37.4157239,58.1685781 C36.8223229,58.2546488 36.2294561,58.3407195 35.6365892,58.4273183 C35.6291116,58.2762985 35.6221682,58.1247507 35.6152247,57.9737309 C36.0921887,57.9130061 36.6129501,57.9684504 36.930214,57.4863488 C37.654473,57.5697793 38.2329187,57.1542108 38.8642418,56.926097 C39.2333148,56.7925025 39.2322465,56.4709254 39.1200825,56.1894794 C38.9983045,55.8858557 38.7141557,55.9397159 38.4695314,56.043212 C37.9252689,56.2744941 37.3868817,56.5195052 36.845824,56.7587079 C35.6547491,56.9414102 34.4636743,57.1241125 33.2720653,57.3068147 C30.7222038,57.5011339 28.1718081,57.4726197 25.6219466,57.2988941 C24.5136595,57.1109114 23.4048382,56.9229287 22.2965511,56.734946 C21.7020819,56.5253137 21.1054763,56.3193776 20.5126094,56.1039367 C20.2407453,56.004665 19.9341637,55.7929204 19.7733953,56.2079609 C19.6500149,56.5258417 19.8273408,56.8130961 20.1248425,56.9250409 C20.7540291,57.1621314 21.4040462,57.3443057 22.0455174,57.5491857 C22.7943456,58.104157 23.7311821,57.9784832 24.5638662,58.2277187 C24.5745485,58.3454719 24.5852308,58.4626971 24.595379,58.5804503 C23.6227569,58.4347109 22.6496007,58.2884434 21.6769786,58.1427041 C20.8859553,57.7398086 19.8583195,57.8147904 19.2777372,56.9852376 C19.1917448,56.8600918 19.1057524,56.734418 19.01976,56.6092722 C18.9909179,56.7629322 18.9620757,56.9165922 18.9326994,57.0697242 C19.1490157,61.0495712 19.337558,65.0415632 19.103616,69.0134896 C18.9791674,71.1309351 19.7461555,72.2097234 21.6711033,72.7266758 C22.3905552,72.9558457 23.109473,73.1844876 23.828925,73.4136575 C22.8643146,74.1560835 21.7517546,73.6597247 20.7839395,73.5762942 C19.3882989,73.4559008 17.9248258,73.7611087 16.5793919,73.1501649 C17.7571139,72.0037873 17.9857148,70.6087023 17.9264281,69.018242 C17.7838196,65.1915269 17.7784785,61.3600595 17.7304082,57.5301762 C17.7256012,57.1579071 17.8067865,56.7840539 17.8479133,56.4112567 C19.1394016,56.6905906 18.472827,55.5452691 18.809319,55.0959059 C20.2006867,55.7417004 21.7426746,55.2801924 23.1692938,55.698401 C23.4101794,55.7691586 23.6788389,55.6867841 23.8171745,55.416955 C24.1606099,55.58276 24.5040454,55.748565 24.8474809,55.9138419 C25.502305,56.0162819 26.1544585,56.171526 26.8247719,56.031067 C28.5435517,56.3822145 30.2692749,56.2391153 31.9949981,56.1023526 C33.0066106,55.6931206 34.2046289,56.1794466 35.1510794,55.4602544 C35.5019924,55.4100905 35.8625196,55.3731276 35.8667925,54.8947222 C36.4163961,55.0299008 36.6455311,54.8207964 36.6156207,54.2605447 C36.5830397,53.6400962 36.5915856,53.0170075 36.5825056,52.3955029 C36.701079,52.2634926 36.8196524,52.1320103 36.9382257,52 C38.6959958,52.3057359 39.8197722,53.4684828 40.8345894,54.7922822 C41.2901888,55.3868567 41.2191516,56.0632775 41.2106058,56.7317778 C41.1475803,61.8030861 41.1064535,66.8749225 40.9884143,71.9451747 C40.9643791,72.9637663 41.3110193,73.3027688 42.2937896,73.4865272 C46.5330546,74.2801732 50.7568302,75.1593619 54.9838106,76.0163729 C55.499765,76.1209251 56.0402887,76.0961071 56.2181487,76.8543744 C57.1053125,80.6325097 58.0619112,84.3942756 58.9789854,88.1655464 C59.0356015,88.3978845 58.9613596,88.6619052 58.9480068,88.9116687 C58.4699745,88.8493598 58.0207844,88.9782019 57.5630484,89.0922588 C48.4697529,91.3617802 39.3732527,93.6207407 30.2810254,95.8976547 C29.7218078,96.0375856 29.2117286,96.0323052 28.652511,95.8923742 C22.8274607,94.4328682 17.0024104,92.97125 11.1650755,91.5603237 C7.44550371,90.6615974 3.77133161,89.5770007 0.00101894458,88.8863227" id="Fill-3" fill="#6C6E6F" sketch:type="MSShapeGroup"></path>
            <path d="M26.0607328,1.84918511 C27.2871067,0.896378875 28.7030064,0.58769435 30.2308265,0.735862922 C30.5597249,0.767760323 30.847445,0.905639411 31.1985164,0.741522138 C34.4331239,-0.771032036 37.3372492,0.240424259 40.1447639,1.89394437 C41.1868914,2.5077121 41.3632189,3.47132229 41.2000896,4.55171813 C40.9118415,4.58155763 40.5850548,4.4863799 40.3807472,4.79043416 C40.1410684,4.91030665 39.9008617,5.03017914 39.6611829,5.15005163 C39.242537,5.10735027 38.8217793,5.04972916 38.4955206,5.40831769 C37.8910444,6.07353284 37.1413883,6.07867758 36.3426351,5.85076551 C36.4682817,4.943233 35.6864221,4.54554444 34.3988086,4.87840925 C34.8190383,5.44896115 35.6299339,5.37796371 36.0776158,5.87597474 C36.0522753,6.09205391 35.9693908,6.34311732 35.7138743,6.23816459 C34.8422671,5.87957606 33.9284258,5.65063504 33.1909121,4.9612396 C32.5394504,4.35210214 32.1862674,3.45691701 31.2993504,3.08237979 C31.0881797,2.73459522 31.071286,2.11825512 30.5064043,2.20159994 C29.8866183,2.29317635 29.9436344,2.87813353 29.9357155,3.35299322 C28.6396552,3.98116623 28.3719963,4.46682988 29.0070922,5.21744775 C29.8148202,6.17179741 30.8822882,6.72125587 32.1714855,6.70530717 C32.4808506,6.70119137 32.7184176,6.67855451 32.9723504,6.87971392 C34.2435981,7.88911232 35.7059554,7.93078473 37.2211053,7.62570153 C37.7057421,7.52795143 38.4099964,7.70750293 38.3825442,6.85862048 C39.1770741,6.73514667 39.783134,6.29218438 40.3374572,5.76227594 C41.2629128,6.15584871 42.2670296,6.43520821 43.093235,6.9738627 C44.0303051,7.58505806 45.3195024,7.58145674 46,8.59908673 C45.4171688,8.75085662 44.8338097,8.90211204 44.2504506,9.05388193 C43.5351098,8.86712779 42.834023,9.0564543 42.1281849,9.13002411 C39.3285891,9.42121652 36.5289932,9.70983655 33.7293974,10 C30.6985697,9.93054598 27.6682699,9.85697617 24.63797,9.79266689 C21.9925289,9.73607473 19.3312499,9.95163942 16.7306825,9.22160052 C15.6869712,8.92835022 14.6242545,8.62686834 13.5071614,8.80487641 C12.7511703,8.31612591 11.8478875,8.41490496 11.0000371,8.17567446 C10.9958137,7.73374111 11.3532201,7.5305238 11.6953167,7.31598805 C13.6349197,7.05823647 15.2651577,6.01128146 17.0384638,5.32908866 C20.1046626,4.31351657 23.1412976,3.22591809 26.0607328,1.84918511 L26.0607328,1.84918511 Z M36.4699327,3.04361424 C36.388297,3.64806008 35.5583347,4.37441096 36.3175461,4.80841549 C37.0484573,5.22718189 37.9420954,4.94838054 38.4558558,4.08037148 C39.2760219,2.69370161 39.180236,2.00403512 38.092305,1.35556801 C36.8296737,0.751122176 36.6707564,0.838035956 36.5112947,2.23768645 C36.4808174,2.50407155 36.4829944,2.77497164 36.4699327,3.04361424 L36.4699327,3.04361424 Z M34.7669018,4.51371597 C34.831403,4.76853713 34.9600073,4.81662702 35.1300199,4.72929135 C35.3159586,5.08195057 35.4999066,5.12727668 35.5663986,4.64140293 C35.7001789,3.66412786 36.001981,2.73052062 35.9999902,1.72339665 C35.6531965,1.59736796 35.8546633,2.46464431 35.483184,2.22751139 C35.2665873,1.87595769 35.7523373,1.38289809 35.3816543,1.15018723 C35.0316754,0.930189786 34.6179915,0.968882804 34.2608458,1.15626756 C33.9168393,1.33646647 33.9936833,1.84389776 34.0462399,2.20208455 C34.1350286,2.80790665 34.2277989,3.40322637 34.2317805,4.02728946 C34.2353639,4.50266082 34.4738592,4.59331304 34.7669018,4.51371597 L34.7669018,4.51371597 Z M33,4 C32.604141,3.17453144 32.8323097,2.45067582 32.3571874,2.01909397 C32.2518082,1.9234904 32.0488389,2.20647698 32.016767,2.43319402 C31.9155114,3.15431811 32.2765494,3.5094171 33,4 L33,4 Z M40.2398282,2 C40.3235539,2.83817588 39.7325491,3.37002455 40.1518811,3.98708655 C40.1870599,4.03850838 40.5965418,3.92905334 40.7070034,3.7880106 C41.1643285,3.2025363 41.141814,2.64424211 40.2398282,2 L40.2398282,2 Z" id="Fill-4" fill="#98999A" sketch:type="MSShapeGroup"></path>
            <path d="M0.394076277,88 C4.12222653,88.7044379 7.75531133,89.8106424 11.4332882,90.7272734 C17.2053457,92.1663086 22.965256,93.6570457 28.7251663,95.1456285 C29.2781303,95.2883472 29.7825054,95.2937328 30.3354694,95.1510142 C39.3260208,92.8287387 48.3207972,90.5247744 57.3124048,88.2100388 C57.765022,88.0937096 58.2091889,87.9623007 58.6818755,88.0258509 C59.1249861,88.8035331 59.0785097,89.5871395 58.7072263,90.3739773 C51.5192216,92.4851368 44.2366796,94.2273819 36.9969171,96.1355038 C34.9641008,96.6713721 32.9223061,97.1813895 30.912728,97.799119 C29.0843024,98.3613768 27.4100941,97.6084684 25.7522582,97.1873136 C18.1702601,95.2598035 10.6231192,93.1874204 3.06541556,91.1597379 C2.53938671,91.0186349 2.03342723,90.8005177 1.51003909,90.6475663 C-0.0955108156,90.177941 -0.338455867,89.6119133 0.394076277,88" id="Fill-5" fill="#C9CCCF" sketch:type="MSShapeGroup"></path>
            <path d="M25,86.9867687 C21.356924,87.1131359 17.8564055,86.3160095 14.3813631,85.379186 C13.7910775,85.220294 13.2783041,85.0688666 12.9536199,85.7561548 C12.4229591,85.7103001 12.0760511,85.8617274 12.1595258,86.4738352 C11.4505326,86.6327273 10.7919495,86.3597315 10.1387868,86.1885759 C9.55446361,86.0350158 9.14901489,85.6431175 9.42003676,84.9510305 C9.6943109,84.249346 9.28452583,83.9027694 8.71321173,83.6996221 C7.67031957,83.3290516 6.60628771,83.0160662 5.56014329,82.6534937 C5.20022624,82.5287261 4.75520833,82.4146224 4.54218514,82.1469585 C3.81909879,81.2389276 2.9567072,81.2789172 2,81.6196288 C2.48892345,79.6132164 2.77295437,77.5529513 3.61637443,75.6393148 C5.43059483,75.3129995 7.24535728,74.9872174 9.06011972,74.6614353 C8.95984163,75.6409144 9.41082202,75.8035388 10.3116987,75.6110554 C11.4407758,75.3695181 12.6110483,75.2228895 13.7265743,75.7032982 C13.9965121,75.8195346 14.0902856,75.7459537 14.2512726,75.5758646 C14.8404742,74.9530929 15.5267015,74.3820412 15.2779035,73.3823007 C15.8096484,73.2548672 16.3419353,73.1274336 16.8736802,73 C16.6140413,73.9074977 15.7343043,74.406035 15.3532475,75.2330203 C15.3619202,77.0512149 15.3619202,78.8694095 15.3819759,80.6876041 C15.396611,81.953942 15.4264235,83.2202799 15.4746653,84.4855514 C15.495263,85.0080824 15.6595023,85.302406 16.0990997,84.692431 C16.2302743,84.6252485 16.361991,84.5580659 16.4931655,84.4914165 C17.8954327,85.2538852 19.4543505,85.4303728 20.9997172,85.6559142 C21.1878064,85.7508229 21.3758956,85.8457316 21.5639847,85.9406403 C22.6692119,86.1720469 23.7744391,86.4029203 24.8796663,86.6343268 C24.9197775,86.7516297 24.9598888,86.8689326 25,86.9867687" id="Fill-6" fill="#434445" sketch:type="MSShapeGroup"></path>
            <path d="M15,75.6821156 C15.365132,74.8364231 16.2081038,74.3266085 16.4568922,73.3985823 C16.6064769,73.2655398 16.7560615,73.1330425 16.9056462,73 C18.2139925,73.6308615 19.6371243,73.3157034 20.9942934,73.4400218 C21.9354302,73.5261723 23.017322,74.0387132 23.9553424,73.2726281 C24.4337017,73.2977099 24.9115416,73.323337 25.3899008,73.3484188 C26.8177071,73.6466739 28.2730412,73.6586696 29.6764361,73.3713195 C30.8164997,73.1374046 31.0133489,73.5141767 30.9993254,74.5921483 C30.9556965,78.0594329 30.9925733,81.5278081 30.9982866,84.9950927 C29.1082222,86.0697928 27.2056923,87.1194111 25.2236956,88 C25.2034394,84.9454744 25.1764311,81.8904035 25.1707177,78.8358779 C25.169679,78.2742639 25.1561748,77.8069793 24.4851214,77.6755725 C21.3152771,77.0550709 18.211915,76.0839695 15,75.6821156" id="Fill-7" fill="#98999A" sketch:type="MSShapeGroup"></path>
            <path d="M42.803162,23.3599632 C42.7921684,23.5038532 42.7816983,23.6487747 42.5728196,23.6265981 C39.3846718,24.0845707 36.1960004,24.5420275 33.0078526,25 C33.0052351,23.426493 33.0026175,21.852986 33,20.2789633 C35.6970998,19.9277479 38.3947231,19.5765325 41.0923464,19.225317 C41.7346875,19.2789535 42.3414302,18.7967414 43,19.1020564 C42.9706837,20.3088759 42.9413674,21.5151797 42.9120511,22.7214835 C42.8759292,22.934482 42.8392838,23.1469647 42.803162,23.3599632" id="Fill-8" fill="#C9CCCF" sketch:type="MSShapeGroup"></path>
            <path d="M35.7681587,54.4378126 C35.7640082,54.913833 35.4138076,54.9506116 35.0729456,55 C34.7984921,47.9132867 35.3162702,40.8176415 34.8296211,33.7330298 C34.8083496,33.4261911 35.3209396,32.9118159 34.6303958,32.8823931 C34.182139,32.8634783 33.9953653,33.3179569 34.0124863,33.8081633 C34.0363518,34.5216684 34.0654055,35.2420038 33.9927713,35.9486785 C33.897828,36.8776012 32.9660349,36.7099958 32.4399557,36.8639406 C31.8075194,37.0494099 32.0721154,36.3007024 32.0503251,35.9628646 C31.9937742,35.0838557 32.0119328,34.2006436 32,33.3190077 C32.3476065,33.2170784 32.7839306,33.2107735 33.0189541,32.9874748 C33.2934076,32.7268721 32.8352933,32.8445636 32.7611027,32.7300245 C32.8415191,31.5452278 32.5473506,30.3052631 33.2679857,29.2150399 C33.8936775,28.8666939 34.5717696,29.0553157 35.2275527,29.0190625 C35.2384479,29.6847554 35.2695768,30.3514991 35.2540123,31.0166666 C35.2415608,31.5483802 35.4688021,31.788492 35.9834673,31.7706281 C36.1085019,32.1888535 35.7474061,32.5345725 35.6981186,32.9307307 C36.3523453,33.0200501 36.2034451,32.1047881 36.7897069,32.2466485 C37.1336818,33.5233917 36.9655855,34.8295579 36.9079969,36.1094536 C36.6833497,41.1313105 36.8343251,46.155269 36.7590968,51.1771259 C36.3212163,50.8177463 36.5111029,50.318608 36.5069524,49.8819933 C36.4747858,46.4353119 36.4638906,42.9886305 36.4467697,39.5414236 C36.474267,38.3849989 36.5697291,37.2280489 36.3912564,36.0747766 C36.4229042,35.3255438 36.4607778,34.5768363 36.4810116,33.8276034 C36.4861997,33.6279481 36.4804927,33.3636675 36.2013699,33.369447 C35.9767227,33.3741756 35.8267849,33.5843392 35.8278225,33.7971297 C35.8330107,34.5952256 35.5154955,35.4810648 36.3710226,36.072675 C35.7136831,37.1875924 35.6555757,38.3392884 36.1624587,39.5261868 C35.795656,42.1027913 35.8449435,44.715649 35.8781477,47.2901519 C35.8978627,48.8243455 35.9471502,50.3968939 36.0369053,51.9494768 C35.6140705,52.7417932 35.8807418,53.6108193 35.7681587,54.4378126" id="Fill-9" fill="#98999A" sketch:type="MSShapeGroup"></path>
            <path d="M25.7442441,55 C25.3875173,54.8353503 25.0307906,54.6701746 24.6740638,54.5049988 C24.4044383,54.4297755 24.1786408,54.3003703 24.0477115,54.0531327 C24.0859917,50.7906488 24.0965326,47.5334252 23.9378641,44.2683111 C23.7603329,40.6197158 23.8823856,36.9579695 23.881276,33.3020096 C23.8807212,32.6612961 23.9195562,32.0195304 23.0951456,31.7654544 C22.8044383,31.4156395 22.2147018,31.4524621 22,31.0037522 C22.7184466,30.5681933 21.9761442,29.7296897 22.5375867,29.2509956 C23.0768377,28.9842947 23.6316227,28.9095974 24.2102635,29.1273768 C24.0821082,29.9832397 24.1775312,30.8159569 24.474896,31.633419 C24.629681,32.0589832 24.3445215,33.0858082 25.3914008,32.1368368 C25.6848821,31.8706619 25.9234397,32.2146903 26,32.533469 C25.3092926,32.5971195 25.4629681,33.1073758 25.4768377,33.4919091 C25.5334258,35.037933 25.6782247,36.5829048 25.6893204,38.1284027 C25.7298197,43.7522685 25.7292649,49.3761342 25.7442441,55" id="Fill-10" fill="#98999A" sketch:type="MSShapeGroup"></path>
            <path d="M13.0101655,8.05369599 C14.1142188,7.87413733 15.1645304,8.17824535 16.1960584,8.47405007 C18.7662694,9.21044814 21.3964834,8.99300572 24.0110443,9.05009084 C27.0059715,9.1149603 30.0008987,9.18917095 32.9963476,9.25922997 C32.9979129,9.62405579 32.9989565,9.98888161 33,10.3537074 C29.2672981,10.3433283 25.5340744,10.3329492 21.8008507,10.3225701 C21.3416981,10.3147858 20.8668926,10.2291581 20.427567,10.3184185 C19.8891062,10.428437 20.0832026,10.6438036 20.4515682,10.7849596 C20.4500029,11.2738158 20.463047,11.763191 20.4437417,12.2515283 C20.3691294,14.1669936 20.6681004,16.0912811 20.3143442,18 C20.2047737,17.9922157 20.0946814,17.9844313 19.9856326,17.977166 C19.9934591,16.1587453 19.9725885,14.3403247 20.0195473,12.5229421 C20.0487661,11.3973272 19.4769124,11.3116996 18.6984401,11.7377622 C17.6763038,12.2961584 16.6489498,12.2857793 15.6012471,11.9489771 C15.1483557,11.8031506 14.7017254,11.8265036 14.2498775,11.7932904 C14.2279634,11.7201177 14.2185716,11.645907 14.2211805,11.5696205 C14.8274706,10.8602082 14.5358044,10.1414546 14.2999669,9.14713555 C13.7980296,9.92089842 14.0369977,10.5374177 13.9550807,11.0989278 C13.8084649,11.0740179 13.6623709,11.0485891 13.5157551,11.0231602 C13.8209872,9.95359263 12.893812,9.09160729 13.0101655,8.05369599" id="Fill-11" fill="#6C6E6F" sketch:type="MSShapeGroup"></path>
            <path d="M14.5188652,22.7499784 C14.1224278,22.5967032 13.9940479,22.2803141 14.0002101,21.8821093 L14.0572108,18 C14.4608375,18.0528178 14.8649776,18.1030465 15.2680908,18.1589713 C17.1727361,18.4225425 18.9567043,19.3147493 20.921945,19.260378 C20.947621,19.3572107 20.9738105,19.4535255 21,19.5498403 C20.975351,21.0333995 20.9507021,22.5169587 20.9265667,24 C19.1410579,23.8047812 17.4582532,23.1823595 15.7333398,22.7334081 C15.3307402,22.6282903 14.9163296,22.2528696 14.5188652,22.7499784" id="Fill-12" fill="#98999A" sketch:type="MSShapeGroup"></path>
            <path d="M34.2921799,24.3538383 C37.5279428,23.9023894 40.7642371,23.4514489 44,23 C42.3162344,24.6054906 40.6675361,26.252669 38.4997343,27.2907982 C36.6666667,27.5271988 34.8330677,27.7635994 33,28 C33.1562092,26.7051347 34.0966527,25.6731063 34.3176834,24.4001017 L34.2921799,24.3538383" id="Fill-13" fill="#6C6E6F" sketch:type="MSShapeGroup"></path>
            <path d="M14,22.2613857 C14.4092918,21.7446043 14.836034,22.134882 15.2506138,22.2441597 C17.0268555,22.7108779 18.7597356,23.3579313 20.5983758,23.5608757 C20.7612465,23.6631553 20.9235883,23.7648967 21.0864589,23.866638 C22.4148064,27.053995 23.7357507,27.9642839 26.9963362,27.9486728 C27.3305382,27.9470579 27.6652691,27.9820483 28,28.000351 C27.9931256,28.1489256 27.9862512,28.2980386 27.9793768,28.4471516 C26.9529745,28.638253 25.8853258,28.2533585 24.8753163,28.6775499 C24.3248347,28.7426859 23.7743532,28.8083602 23.2233428,28.8734962 C22.6718036,28.6506342 22.1430028,28.7270748 21.6290085,29 C21.4909915,28.3464868 22.0615675,27.396901 20.8929178,27.174039 C18.0294618,26.35957 16.2886497,23.9118564 14,22.2613857" id="Fill-14" fill="#6C6E6F" sketch:type="MSShapeGroup"></path>
            <path d="M34.0038631,11.2590242 C34.0027593,10.8719983 34.0016556,10.4849724 34,10.0979465 C36.9265546,9.78744497 39.8531093,9.47859501 42.7796639,9.16699237 C43.5175111,9.08826591 44.2503915,8.88566914 44.9981723,9.08551324 C44.990998,9.98673853 44.9291888,10.8923681 44.9965167,11.7880881 C45.0362511,12.3155003 44.7294127,12.5114906 44.4148481,12.7625345 C43.8409056,14.1267594 44.356902,15.6209106 43.9054741,17 C43.780752,14.9734818 43.8425612,12.9519184 44.0693789,10.9347593 C44.394429,10.4976347 44.6466325,10.2537479 43.743225,10.3715623 C40.5236286,10.7905192 37.2902355,11.105425 34.0618092,11.4599694 C34.0469088,11.3917031 34.0275934,11.3245378 34.0038631,11.2590242" id="Fill-15" fill="#434445" sketch:type="MSShapeGroup"></path>
            <path d="M23,32 C23.8441043,32.2508025 23.8043416,32.8842995 23.8049097,33.5167579 C23.8060458,37.1256137 23.6810774,40.7401813 23.8628495,44.3417674 C24.0253084,47.5648131 24.0145157,50.7800699 23.9758891,54 C23.2539129,53.750236 22.955693,53.3841579 23.2152864,52.6083837 C23.3885379,52.0917202 23.2340316,51.4841862 23.2260791,50.9171545 C23.15053,44.6112632 23.075549,38.3058912 23,32" id="Fill-16" fill="#6C6E6F" sketch:type="MSShapeGroup"></path>
            <path d="M45.4869748,8.99970881 C44.8275761,7.99406193 43.5783506,7.99762084 42.6703346,7.39362261 C41.8697457,6.86131104 40.8967618,6.58524114 40,6.19630289 C40.0143236,5.87650921 40.0281357,5.55569871 40.0419478,5.23539662 C40.2399209,4.93543117 40.5565755,5.02948813 40.8358863,5 C42.7322331,5.6380621 44.6239759,6.29086827 46.5285076,6.90503482 C47.0339272,7.06772794 47.141866,7.34583151 46.8093531,7.68036924 C46.3714592,8.12116593 46.3827135,9.0185202 45.4869748,8.99970881" id="Fill-17" fill="#6C6E6F" sketch:type="MSShapeGroup"></path>
            <path d="M22.6877931,51 C22.6952976,51.623141 22.8410983,52.290792 22.6776085,52.8585807 C22.4326418,53.7111197 22.7140587,54.1134222 23.3953557,54.387901 C23.5213232,54.6566733 23.7394883,54.7970512 24,54.878653 C23.8611677,55.170251 23.5915434,55.2592712 23.3497929,55.1828052 C21.9180509,54.7308568 20.3705259,55.2295978 18.9741619,54.5317027 C18.6364616,55.017319 19.3054298,56.2550413 18.0093039,55.9531717 C17.8897687,54.1311121 18.9307433,52.4363057 20.6310375,51.7366987 C21.305366,51.4599374 22.0016719,51.2436641 22.6877931,51" id="Fill-18" fill="#434445" sketch:type="MSShapeGroup"></path>
            <path d="M28,29.2287305 L28.0194913,28.7888016 C29.2864283,28.6130418 30.5633607,29.2604944 31.8267992,28.7379795 C33.5510329,28.4923393 35.2757663,28.2461696 37,28 C36.9825078,28.4542227 36.9195358,28.9126805 36.9560195,29.3621386 C37.0434807,30.4532259 36.9215349,31.465433 36.1818636,32.3045274 C35.6171146,32.1615902 35.7605509,33.0837998 35.130331,32.9938023 C35.1778099,32.5946369 35.5256553,32.2462937 35.4057086,31.8248936 C35.4207019,31.1260895 35.4311972,30.4278148 35.4526877,29.7300695 C35.4711795,29.1392624 35.2492781,28.8756227 34.6770324,29.0524413 C34.0453132,29.0889697 33.3921035,28.8989162 32.7893714,29.2499064 C32.5534762,29.4971348 32.257108,29.4981936 31.9472457,29.5590743 C30.9951688,29.7454221 30.1165593,29.1588501 29.1784762,29.3324924 C28.7856508,29.2980816 28.3928254,29.2631413 28,29.2287305" id="Fill-19" fill="#434445" sketch:type="MSShapeGroup"></path>
            <path d="M14.9499704,73 C15.1875265,73.8410307 14.5323063,74.3214274 13.9697277,74.8453334 C13.8160149,74.9884208 13.7264785,75.0503206 13.4687378,74.9525368 C12.4036168,74.5483935 11.286223,74.6717447 10.2081631,74.8749377 C9.34799243,75.0368641 8.91738955,74.9000565 9.01313658,74.0760707 C10.9637884,73.600608 12.9599847,73.3112935 14.9499704,73" id="Fill-20" fill="#6C6E6F" sketch:type="MSShapeGroup"></path>
            <path d="M36.190309,50.9984777 C36.0961715,49.4989851 36.0444775,47.9802097 36.0237999,46.4984777 C35.9889745,44.0120095 35.9372805,41.488498 36.3209043,39 C36.4193949,39.0050744 36.519518,39.0101488 36.6201853,39.0147158 C36.6381421,42.344046 36.6495692,45.6728687 36.6833063,49.0016915 C36.6876595,49.4233762 36.4885016,49.9054465 36.9477619,50.2525372 C36.9651746,50.3748309 36.9825873,50.4976319 37,50.6199256 C36.8791993,50.7467862 36.7583986,50.8731394 36.637598,51 L36.190309,50.9984777" id="Fill-21" fill="#C9CCCF" sketch:type="MSShapeGroup"></path>
            <path d="M43.20178,15.8704774 C43.5417024,14.6108248 43.1531603,13.2460755 43.5853354,12 C44.0985434,12.3987643 43.9360622,13.0162706 43.9186089,13.5739372 C43.895338,14.3116259 43.7739965,15.0508232 43.9884218,15.7769463 C44.071948,16.5518464 43.6813282,17.175387 43.5288202,17.8748587 C43.0060546,17.5771684 42.5244286,18.0473381 42.0141295,17.9960469 C41.9426544,17.5268829 42.1483532,17.3684834 42.4953399,17.3689863 C42.805758,17.7144479 43.0787763,17.7913848 43.1548225,17.1603013 C43.2059355,16.7368971 43.1884823,16.3009216 43.20178,15.8704774" id="Fill-22" fill="#6C6E6F" sketch:type="MSShapeGroup"></path>
            <path d="M26,2.06626411 C23.0877706,3.62254401 20.0586308,4.85198187 17,6 C17.0047396,5.82785544 17.0094792,5.6551293 17.0142188,5.48240317 C19.7816267,4.12153061 22.6906963,3.18287749 25.5244587,2.01857541 C25.6587478,1.96332631 25.840433,2.04707231 26,2.06626411" id="Fill-23" fill="#6C6E6F" sketch:type="MSShapeGroup"></path>
            <path d="M20.947621,19.9973185 C18.9629245,20.0585502 17.161295,19.0537678 15.2377937,18.75694 C14.8306898,18.6939589 14.4225486,18.6373925 14.0149261,18.5779103 C13.9781052,18.3411478 13.9972936,18.1282949 14.2125141,18 C14.4629997,18.0075811 14.7129667,18.0151621 14.9634524,18.0227432 C15.4058214,18.110217 15.8466345,18.2064382 16.2905594,18.282832 C17.7748033,18.5388386 19.1641427,19.2648712 20.672761,19.3972482 C20.7816678,19.4059956 20.8910932,19.414743 21,19.4234904 C20.9823675,19.6147664 20.9652535,19.8060425 20.947621,19.9973185" id="Fill-24" fill="#434445" sketch:type="MSShapeGroup"></path>
            <path d="M14.9883959,18 C14.6587031,17.9929354 14.3296928,17.9858708 14,17.9788063 C14.0129693,15.9855086 14.0266212,13.9927543 14.0395904,12 C14.2313993,12.0260846 14.4225256,12.0527126 14.6143345,12.0787972 C14.7303754,12.2429128 14.8457338,12.4075718 14.9624573,12.5716873 C14.9590444,12.6515714 14.9713311,12.7292818 15,12.8059053 C14.9959044,14.5372702 14.9924915,16.2686351 14.9883959,18" id="Fill-25" fill="#C9CCCF" sketch:type="MSShapeGroup"></path>
            <path d="M17,5 C16.9955656,5.125 16.9911313,5.25 16.9866969,5.37457912 C15.331691,5.93265993 13.8102089,6.78914141 12,7 C13.3716989,5.79545455 15.255814,5.5256734 17,5" id="Fill-26" fill="#434445" sketch:type="MSShapeGroup"></path>
            <path d="M43.081656,18.2284341 C43.2600354,17.4854447 43.71692,16.8231105 43.6192244,16 C44.1942186,18.0393483 44.1349208,20.041841 43.3256518,22 C43.2172632,21.992522 43.1083886,21.9845099 43,21.977032 C43.0272187,20.7276774 43.0544373,19.4783228 43.081656,18.2284341" id="Fill-27" fill="#434445" sketch:type="MSShapeGroup"></path>
            <path d="M21.0318375,28 C22.526061,28.246282 21.7965283,29.2956573 21.9729955,30.0178465 C21.2887628,30.559191 22.1934103,31.507436 21.3178359,32 C20.7154137,30.6948245 21.1832882,29.3301606 21.0318375,28" id="Fill-28" fill="#434445" sketch:type="MSShapeGroup"></path>
            <path d="M43.208,22 C43.431,22.0113177 43.655,22.0234438 43.878,22.0347615 C43.915,22.5521423 43.404,22.7437348 43,23 C43.069,22.6669361 43.139,22.3338723 43.208,22" id="Fill-29" fill="#6C6E6F" sketch:type="MSShapeGroup"></path>
            <path d="M32.1172805,83.970096 C32.1110482,80.6100993 32.0708215,77.2490457 32.1184136,73.889049 C32.133711,72.8444329 31.9189802,72.4793192 30.6753541,72.7059962 C29.1444759,72.9844548 27.5569405,72.9728303 26,72.683804 C26.0215297,67.7888504 26.0430595,62.8944252 26.0645892,58 C29.0424929,58.3091049 32.0209632,58.2351311 35,58.0142664 C34.6141643,66.6005138 34.7699717,75.1904599 34.7422096,83.7793492 C33.8685552,83.8617772 33.0067989,84.0789432 32.1172805,83.970096" id="Fill-30" fill="#E5E5E5" sketch:type="MSShapeGroup"></path>
            <path d="M25.2916117,54.8104312 C25.2766241,49.1334557 25.2771791,43.4564803 25.236657,37.7795048 C25.2255551,36.2194119 25.0806746,34.6598499 25.0240546,33.099226 C25.0101772,32.7110612 24.8564151,32.1959863 25.5475117,32.1317347 L25.5397403,32.1253626 C26.9369211,32.7439836 28.3934972,32.2942222 29.8228736,32.3436057 C30.785968,32.376528 31.7490624,32.4094503 32.7121568,32.4418417 C32.724924,33.3328682 32.7054956,34.2254878 32.7660012,35.1138593 C32.7893153,35.4552956 32.5062155,36.2119778 33.1828795,36.024533 C33.7457485,35.8689485 34.7427039,36.0383391 34.8442867,35.0995221 C34.9220004,34.3853203 34.8909149,33.6573123 34.8653805,32.9362074 C34.8470622,32.4407796 35.0468974,31.9814602 35.5265017,32.0005764 C36.2653367,32.0303127 35.7169002,32.5501667 35.7396592,32.8602737 C36.2603408,40.0203463 35.7063534,47.1915701 36,54.3537668 C35.016367,55.0775267 33.771283,54.5884711 32.7199281,55 C32.7227036,49.7329605 32.7254791,44.465921 32.7276995,39.1988815 C32.7276995,38.9864794 32.7371362,38.7730154 32.7182628,38.5622064 C32.6705244,38.0173951 32.3774329,37.897919 31.9183672,38.1920958 C31.7002138,38.3317501 31.5331294,38.5420282 31.3305188,38.7071707 C31.0407578,38.943999 30.8037311,39.3857953 30.3402246,39.1718002 C29.8850445,38.9620532 30.0826593,38.4921137 30.0765532,38.1358093 C30.0543493,36.7339558 30.0476882,35.3321024 30.0715573,33.9307799 C30.0843246,33.1640086 29.7296172,32.8597427 28.943599,32.8815139 C28.0077044,32.9075331 28.2641595,33.411988 28.4256929,33.9217529 C28.5200595,34.2201777 28.4701007,34.5244436 28.2319638,34.7533068 C27.4365089,35.5195472 27.408754,36.4822594 27.4065336,37.4731149 C27.3954317,43.2918687 27.3682319,49.1100915 27.3465831,54.9283143 C26.6499356,55.0695617 25.9721614,54.9134462 25.2916117,54.8104312" id="Fill-31" fill="#C9CCCF" sketch:type="MSShapeGroup"></path>
            <path d="M27,54.7818554 C27.0201067,49.0338355 27.045369,43.2858155 27.0556801,37.5372709 C27.0577424,36.5583711 27.0835202,35.6072749 27.8223133,34.8502801 C28.0434872,34.6241783 28.0898874,34.3235837 28.0022427,34.0287596 C27.8522156,33.5251456 27.6140283,33.0267775 28.4832573,33.0010722 C29.2132859,32.9795637 29.5427268,33.2801583 29.530869,34.0376778 C29.5087,35.4220919 29.5148867,36.8070305 29.535509,38.1919692 C29.5411801,38.5439744 29.3576418,39.0082436 29.7803985,39.2154598 C30.2108886,39.4268728 30.4310314,38.9904073 30.7001521,38.7564366 C30.8883304,38.5932866 31.043513,38.3855458 31.2461269,38.2475765 C31.6724925,37.9569493 31.9447065,38.0749838 31.9890444,38.6132213 C32.0065734,38.8214867 31.9978089,39.0323751 31.9978089,39.2422143 C31.9957467,44.4457016 31.9931689,49.6491889 31.9905911,54.8526762 C30.3248266,54.988547 28.6590622,55.1307131 27,54.7818554" id="Fill-32" fill="#E5E5E5" sketch:type="MSShapeGroup"></path>
            <path d="M33.0081689,83.9886141 C33.0350102,75.5414051 32.8843704,67.0931568 33.2574093,58.6485461 C33.8890007,58.51707 34.5205922,58.3855939 35.1521836,58.2546375 C35.7602205,58.1694119 36.3682574,58.0847059 36.9762943,58 C36.962052,60.6633003 37.0737993,63.3328366 36.9078216,65.9867828 C36.551764,71.6792299 36.7352706,77.3690787 36.7714242,83.0604864 C35.9524916,83.6113349 34.9834671,83.6056185 34.0478572,83.7241029 C33.9492566,83.6030202 33.8725673,83.6466723 33.8051902,83.753724 C33.6019635,84.0223925 33.3072574,84.0130385 33.0081689,83.9886141" id="Fill-33" fill="#C9CCCF" sketch:type="MSShapeGroup"></path>
            <path d="M37.082015,83 C37.0446678,77.260687 36.8551024,71.5229461 37.2229158,65.782585 C37.3943735,63.1063001 37.2789366,60.414294 37.2936492,57.7285764 C39.9877413,56.5845917 40.0918608,56.588784 39.9673701,59.1958953 C39.6204937,66.4659363 39.7919514,73.7385976 39.7263108,81.0096867 C39.7110324,82.6840024 38.1152879,82.5105443 37.082015,83" id="Fill-34" fill="#98999A" sketch:type="MSShapeGroup"></path>
            <path d="M15,75 C18.1416379,75.3863505 21.1770982,76.3199871 24.2775859,76.9165499 C24.9339565,77.0428871 24.9471652,77.492144 24.9481813,78.032091 C24.9537696,80.9687739 24.980187,83.9059811 25,86.842664 C24.6494615,87.147236 24.4899411,86.9805339 24.4208494,86.5915624 C24.4284698,84.0333666 24.4411705,81.4751709 24.4406625,78.9164509 C24.4401544,77.6074725 23.1289372,76.9160257 21.8278805,77.6148116 C22.2439545,77.7002595 22.5934769,77.7547784 22.9338549,77.8444201 C24.1775046,78.1704852 24.6885796,79.1549712 24.185125,80.7444076 C23.806137,81.9406786 22.9003251,80.9860732 22.2368421,80.9881701 C21.7328795,80.990267 21.5565942,80.62174 21.5616745,80.1331666 C21.5698029,79.4202268 21.5489738,78.7062385 21.5657387,77.9932987 C21.5789474,77.4014538 21.3904694,76.9784079 20.7589921,76.9962314 C20.1051616,77.0151034 20.2977037,77.5765435 20.2951636,77.9471673 C20.2809388,80.3800744 20.2905913,82.8140299 20.2921154,85.2474612 C18.8437309,85.0257159 17.3826458,84.852199 16.0683804,84.1025637 C16.0947978,83.4824109 16.1115627,82.8622582 16.1486486,82.2431538 C16.2660028,80.2961991 15.7874416,78.3513413 16.1313757,76.4043866 C16.7125584,77.0538957 16.3930096,77.8397021 16.402154,78.5594568 C16.420951,80.1038102 18.2630563,81.1889465 19.7845966,80.4031401 C19.0510059,80.2348653 18.3880309,80.1116735 17.7433448,79.9224299 C17.4547856,79.8375062 17.0061979,79.8427484 16.9625076,79.4401471 C16.8908758,78.7775325 17.0290591,78.0776982 16.8883357,77.4381493 C16.6358464,76.2911549 17.7098151,76.8588857 18.161959,76.3965233 C17.3999187,76.1905046 16.8212762,75.9095225 16.1603333,75.9923493 C15.8219874,75.8429465 15.4455395,75.5881753 15.4709409,76.3063573 C15.5654339,78.9704456 15.3317415,81.6444941 15.6990449,84.3001948 C15.2870352,84.899903 15.133103,84.6105333 15.113798,84.0967973 C15.0685836,82.8528222 15.0406421,81.6077987 15.0269254,80.3627751 C15.0081284,78.5751834 15.0081284,76.7875917 15,75" id="Fill-35" fill="#C9CCCF" sketch:type="MSShapeGroup"></path>
            <path d="M26,58.6555403 C25.9780252,63.4368548 25.9560503,68.2181693 25.9340755,73 C25.4008963,72.976256 24.8688738,72.9519959 24.336273,72.9282519 C23.5573225,72.7037164 22.7789504,72.4802134 22,72.2556779 C22.0023131,67.5037853 22.0046263,62.7518926 22.0063611,58 C23.0594188,58.1424639 24.1130548,58.2854439 25.1661125,58.4268754 C25.4436895,58.5027529 25.7218447,58.5791466 26,58.6555403" id="Fill-36" fill="#C9CCCF" sketch:type="MSShapeGroup"></path>
            <path d="M22,57.1029856 C21.9982483,61.7353237 21.9959128,66.3676619 21.9935773,71 C19.8892565,70.5078833 19.050798,69.4798725 19.1868431,67.4620933 C19.4425847,63.6771218 19.2364733,59.8730292 19,56.0800067 C19.1255352,56.0533378 19.2516543,56.0266689 19.3771896,56 C20.0118723,56.7905065 21.1352666,56.719054 22,57.1029856" id="Fill-37" fill="#98999A" sketch:type="MSShapeGroup"></path>
            <path d="M12.0118209,86.7346711 C11.9321007,86.1146567 12.2634054,85.9612733 12.770198,86.0077204 C16.7598312,87.2850149 20.8509264,88.1345642 24.9042322,89.1434378 C24.9363274,89.7369882 24.9679049,90.3310786 25,90.924629 C23.8549282,91.2178936 22.8568728,90.5773561 21.8054981,90.3359393 C19.031339,89.6981022 16.2882397,88.9166033 13.5161512,88.2679645 C12.6444058,88.0638134 12.1660846,87.6171654 12.0118209,86.7346711" id="Fill-38" fill="#C9CCCF" sketch:type="MSShapeGroup"></path>
            <path d="M20.0257814,84.7393633 C20.023954,82.4570404 20.0123804,80.1742259 20.0294362,77.8923947 C20.0324819,77.5447855 19.8016195,77.018209 20.585577,77.000509 C21.3427325,76.9837923 21.5687217,77.3805684 21.5528842,77.9356615 C21.5327827,78.60433 21.5577573,79.2739818 21.5480111,79.9426503 C21.5419198,80.4008849 21.7532898,80.7465275 22.3575523,80.7445608 C23.1530833,80.7425941 24.239172,81.6379215 24.6935871,80.5159352 C25.2972404,79.0251978 24.6844501,78.1018453 23.1932862,77.7960278 C22.7851654,77.7119526 22.3660802,77.6608191 21.8671982,77.5806772 C23.4271943,76.9252838 24.9993731,77.5737939 24.9999823,78.8014889 C25.0005914,81.2013204 24.985363,83.6006602 24.976226,86 C24.8239421,85.9891833 24.6722673,85.9778749 24.5205926,85.9665666 C24.4761257,85.8579079 24.4310497,85.749741 24.3859736,85.6410824 C24.7447545,84.7290382 24.2409994,83.8076524 24.4298314,82.8960999 C24.6515567,81.8277054 24.117954,81.2917873 22.7675005,81.2549122 C21.4773514,81.2200037 21.0704489,80.6663856 21.1575553,79.6407661 C21.2190779,78.9180142 21.4651687,78.118562 20.6598915,77.4410435 L20.6598915,85.001914 L20.0257814,84.7393633" id="Fill-39" fill="#98999A" sketch:type="MSShapeGroup"></path>
            <path d="M25.0906596,90 C25.0602764,89.4368626 25.0303832,88.8732128 25,88.3100754 C26.1717142,87.6890358 27.3453886,87.0710706 28.5146526,86.4438821 C28.9664804,86.2015127 29.4129178,85.9540191 29.9456042,86.0073097 L30,87.4630634 C28.4612369,88.5155514 26.8401451,89.3943327 25.0906596,90" id="Fill-40" fill="#98999A" sketch:type="MSShapeGroup"></path>
            <path d="M30.0604312,87.9765153 L30,86.5705864 C30.4796385,86.0103923 31.1797692,86.2202177 31.791703,86.1702357 C32.856054,86.0836332 33.9258493,86.053941 34.9934669,86 C34.9956446,86.5656377 34.9978223,87.1307806 35,87.6964183 C33.3536585,87.7909387 31.7209277,88.0843972 30.0604312,87.9765153" id="Fill-41" fill="#E5E5E5" sketch:type="MSShapeGroup"></path>
            <path d="M35.0065452,88 C35.0043635,87.377564 35.0021817,86.7556725 35,86.1332365 C36.6668485,85.7558541 38.3331515,85.377927 40,85 C39.9972728,85.5897622 39.9950911,86.1795244 39.9923639,86.7692866 C38.3642413,87.3149392 36.6886659,87.6705391 35.0065452,88" id="Fill-42" fill="#C9CCCF" sketch:type="MSShapeGroup"></path>
            <path d="M26.05188,56 C28.6867196,56.2880901 31.3221111,56.3353754 33.9569507,56.0131348 L34,57.560415 C31.3342532,58.1348438 28.6674026,58.1506056 26,57.5823063 C26.0171093,57.0551628 26.0347706,56.5271436 26.05188,56" id="Fill-43" fill="#E5E5E5" sketch:type="MSShapeGroup"></path>
            <path d="M40,86 C40.0023222,85.4785018 40.00418,84.9570037 40.0065021,84.4355055 C40.5025232,83.8812632 41.2047553,83.6939476 41.825246,83.3693957 C42.1340981,83.2076013 42.6036461,82.6836954 42.8456189,83.2730895 C43.0369678,83.73873 43.1637597,84.465842 42.5130804,84.806766 C41.6914875,85.2372548 40.9223762,85.7953493 40,86" id="Fill-44" fill="#98999A" sketch:type="MSShapeGroup"></path>
            <path d="M26.0012542,57.2670626 C28.5656746,57.5947066 31.1295644,57.5856194 33.692393,57.2544415 C34.4543437,57.1691228 35.216825,57.0848138 35.9787757,57 C35.9856736,57.1443855 35.9925715,57.2892758 36,57.4336613 C35.3882109,57.560882 34.7764218,57.6886076 34.1646327,57.8163332 C31.3747045,58.0273582 28.585307,58.0980364 25.7964401,57.8027024 C25.5412185,57.7279855 25.2859968,57.6532685 25.0313058,57.5790564 C25.0212243,57.4674858 25.0106121,57.3554104 25,57.2428301 L26.0012542,57.2670626" id="Fill-45" fill="#98999A" sketch:type="MSShapeGroup"></path>
            <path d="M35.5621259,57.6407698 C34.7234633,57.7605132 33.8842167,57.8795438 33.0455541,58 L33,56.740556 C34.3029639,56.4939416 35.6053438,56.2473272 36.9083078,56 C36.9386772,56.3271561 36.9696306,56.6550249 37,56.9828938 C36.653088,57.6336422 36.0836618,57.5588026 35.5621259,57.6407698" id="Fill-46" fill="#C9CCCF" sketch:type="MSShapeGroup"></path>
            <path d="M26.9438135,58 L25.8158996,57.9666087 C24.8840406,57.6382609 23.8356246,57.8038261 23,57.072 C23.0938434,56.7144348 23.1864913,56.3575652 23.2785415,56 C24.5188285,56.2476522 25.7597131,56.4953043 27,56.7429565 C26.9814704,57.1617391 26.9623431,57.5812174 26.9438135,58" id="Fill-47" fill="#C9CCCF" sketch:type="MSShapeGroup"></path>
            <path d="M22,56.9749131 C21.9358108,57.3168305 21.8712047,57.6580826 21.805765,58 C21.303505,57.7425642 20.7962433,57.5130671 20.3052372,57.2143883 C20.0730722,57.073364 19.9346902,56.7114904 20.0309741,56.3110347 C20.1564349,55.7881805 20.3956857,56.0549293 20.6078436,56.1799885 C21.0705064,56.4513937 21.5360868,56.7108252 22,56.9749131" id="Fill-48" fill="#98999A" sketch:type="MSShapeGroup"></path>
            <path d="M37.0716843,57.9858008 C37.0479418,57.669444 37.0237426,57.3530873 37,57.0374183 C37.4620672,56.7265634 37.9223081,56.4074557 38.3875715,56.1062291 C38.5966889,55.9714336 38.8395938,55.9012849 38.9436959,56.2967309 C39.0395794,56.663292 39.0404926,57.0821209 38.7249901,57.2561171 C38.1853029,57.5532173 37.6908179,58.0944625 37.0716843,57.9858008" id="Fill-49" fill="#98999A" sketch:type="MSShapeGroup"></path>
            <path d="M36.3682043,52 L36.9524977,52.0012471 C36.9645816,52.4905131 36.9532085,52.9810262 36.9965685,53.4694609 C37.0363743,53.910507 36.7314329,54.0751198 36,53.9687034 C36.1542478,53.3144088 35.7888867,52.6268591 36.3682043,52" id="Fill-50" fill="#E5E5E5" sketch:type="MSShapeGroup"></path>
            <path d="M19.646,56.712 C19.431,56.765 19.215,56.818 19,56.871 C19.055,56.582 19.109,56.291 19.163,56 C19.324,56.237 19.485,56.475 19.646,56.712" id="Fill-51" fill="#434445" sketch:type="MSShapeGroup"></path>
            <path d="M34,83.1972748 C34.123,82.9912748 34.263,82.9072748 34.443,83.1402748 L34.226,83.2032748 L34,83.1972748" id="Fill-52" fill="#E5E5E5" sketch:type="MSShapeGroup"></path>
            <path d="M31.6259187,3 C32.5141349,3.39761027 32.8678353,4.3479425 33.5202513,4.99460536 C34.2588453,5.72647041 35.1740253,5.96951515 36.0469092,6.35019421 C36.3028,6.46161247 36.3858059,6.19508251 36.4111836,5.96569197 C36.5000052,5.95640712 36.5882981,5.94766843 36.676591,5.93892974 C37.4765143,6.18088215 38.2272685,6.17542047 38.8326301,5.46922531 C39.1593668,5.08854624 39.5807408,5.14971706 40,5.19450283 C39.2767382,6.50967525 37.9343686,6.55609953 36.7194157,6.90127767 C37.0620134,6.96627166 37.3919223,6.96080998 37.7218312,6.96791016 C38.0543835,6.97501035 38.3869359,6.99467239 38.7194883,7.00887276 C38.7469807,7.91004988 38.0416947,7.71943727 37.556348,7.82320918 C36.0389787,8.14708677 34.5744793,8.10284717 33.3013694,7.03126565 C33.0470647,6.81771398 32.8091496,6.84174537 32.4993313,6.84611471 C31.2082456,6.86304592 30.139214,6.27973855 29.3303028,5.266597 C28.6942765,4.46973796 28.9623275,3.95415541 30.2602863,3.28783051 C30.7630801,3.94869373 31.0459347,4.85478636 32.0472927,5.09346176 C32.0779573,4.28021768 31.4466894,3.72804188 31.6259187,3" id="Fill-53" fill="#6C6E6F" sketch:type="MSShapeGroup"></path>
            <path d="M34.7669018,3.51371597 C34.4738592,3.59331304 34.2353639,3.50266082 34.2317805,3.02728946 C34.2277989,2.40322637 34.1350286,1.80790665 34.0462399,1.20208455 C33.9936833,0.843897758 33.9168393,0.336466471 34.2608458,0.15626756 C34.6179915,-0.0311171963 35.0316754,-0.0698102139 35.3816543,0.150187229 C35.7523373,0.382898092 35.2665873,0.875957687 35.483184,1.22751139 C35.8546633,1.46464431 35.6531965,0.597367961 35.9999902,0.723396646 C36.001981,1.73052062 35.7001789,2.66412786 35.5663986,3.64140293 C35.4999066,4.12727668 35.3159586,4.08195057 35.1300199,3.72929135 C35.1527147,3.09140932 35.4513316,2.50382821 35.3283014,1.80845941 C34.5925096,2.06106954 34.8943116,2.92116004 34.7669018,3.51371597" id="Fill-54" fill="#C9CCCF" sketch:type="MSShapeGroup"></path>
            <path d="M38.092305,1 C39.180236,1.53380097 39.2760219,2.10151618 38.4558558,3.24298613 C37.9420954,3.95750822 37.0484573,4.18701012 36.3175461,3.8422927 C35.5583347,3.48503165 36.388297,2.88711882 36.4699327,2.38909042 C37.3466995,2.21162134 38.3709547,2.1600531 38.092305,1" id="Fill-55" fill="#C9CCCF" sketch:type="MSShapeGroup"></path>
            <path d="M31.5274754,2.9317963 C31.3270053,3.6510542 32.0330857,4.19656788 31.998787,5 C30.8787567,4.76420427 30.5623806,3.86904384 30,3.21615408 C30.0088704,2.71758371 29.9450038,2.10408316 30.639257,2.00803822 C31.2720091,1.92062653 31.2909326,2.56704136 31.5274754,2.9317963" id="Fill-56" fill="#434445" sketch:type="MSShapeGroup"></path>
            <path d="M37.9994715,7 C37.667019,6.98706468 37.3345666,6.96915423 37.0021142,6.96268657 C36.6723044,6.95621891 36.3424947,6.96119403 36,6.90199005 C37.2145877,6.58756219 38.5565539,6.54527363 39.2795983,5.34726368 C39.519556,5.2318408 39.7600423,5.1159204 40,5 C39.9857294,5.31293532 39.9714588,5.62686567 39.9566596,5.939801 C39.4016913,6.45223881 38.794926,6.88059701 37.9994715,7" id="Fill-57" fill="#434445" sketch:type="MSShapeGroup"></path>
            <path d="M37.9440996,1.34807571 C38.2780074,2.72762586 37.0506355,2.78895148 36,3 C36.0156519,2.73757056 36.0130433,2.4723787 36.0495644,2.2116067 C36.2406484,0.841448761 36.4310801,0.756366373 37.9440996,1.34807571" id="Fill-58" fill="#E5E5E5" sketch:type="MSShapeGroup"></path>
            <path d="M35.9865269,5.97737191 C35.8964264,5.98476067 35.8063259,5.99214944 35.7156859,6 C35.2581697,5.55297979 34.429461,5.61670787 34,5.10457418 C35.3158987,4.80579104 36.1149336,5.16276069 35.9865269,5.97737191" id="Fill-59" fill="#C9CCCF" sketch:type="MSShapeGroup"></path>
            <path d="M33,3 C32.2765494,2.5094171 31.9155114,2.15431811 32.016767,1.43319402 C32.0488389,1.20647698 32.2518082,0.9234904 32.3571874,1.01909397 C32.8323097,1.45067582 32.604141,2.17453144 33,3" id="Fill-60" fill="#6C6E6F" sketch:type="MSShapeGroup"></path>
            <path d="M35,3.73921966 C35.2155779,3.13486197 34.7049278,2.25764129 35.94989,2 C36.1580573,2.70921826 35.6527967,3.30850206 35.6143969,3.9590886 C35.3267352,4.04816371 35.1091363,3.99911602 35,3.73921966" id="Fill-61" fill="#434445" sketch:type="MSShapeGroup"></path>
            <path d="M40.2398282,2 C41.141814,2.64424211 41.1643285,3.2025363 40.7070034,3.7880106 C40.5965418,3.92905334 40.1870599,4.03850838 40.1518811,3.98708655 C39.7325491,3.37002455 40.3235539,2.83817588 40.2398282,2" id="Fill-62" fill="#6C6E6F" sketch:type="MSShapeGroup"></path>
            <path d="M21,85.376424 L21,78 C21.6260679,78.6609905 21.4347431,79.4409402 21.3869119,80.1460607 C21.3191905,81.1466603 21.6355395,81.686773 22.6385742,81.7208298 C23.688493,81.7568054 24.1033459,82.2796498 23.9309641,83.3219811 C23.7841554,84.2112963 24.1758031,85.1102051 23.8968666,86 C22.9312444,85.7923012 21.9656222,85.5846025 21,85.376424" id="Fill-63" fill="#C9CCCF" sketch:type="MSShapeGroup"></path>
            <path d="M16.3285756,84 C15.8022997,81.4936083 16.1371364,78.9699004 16.0017459,76.4555928 C15.9653506,75.7777885 16.5047288,76.0182358 16.9895141,76.1592389 L16.9480235,76.5481106 C16.4552312,78.3856034 17.1409185,80.2211173 16.9727723,82.0586101 C16.9196351,82.6429071 16.8956142,83.2281936 16.8577631,83.8134801 C16.6816099,83.8753236 16.5047288,83.9376618 16.3285756,84" id="Fill-64" fill="#6C6E6F" sketch:type="MSShapeGroup"></path>
            <path d="M41.877141,17.436798 C41.4310133,17.4363226 41.1665423,17.5860819 41.2584393,18.0296547 C38.5058043,18.3524692 35.752635,18.6762346 33,19 C33.0122885,18.9234563 33.0245771,18.8464373 33.0368656,18.7698936 C33.5524504,17.8024009 33.1570797,16.7835621 33.2436338,15.7918227 C33.3478194,14.6056338 32.9764915,13.3947228 33.4808563,12.2285018 C35.4496956,11.4773281 37.5863002,11.6004635 39.6411594,11.2966661 C40.4164065,11.1816129 41.2584393,11.4792298 41.976518,11 C41.9791894,13.1460748 42.0694835,15.2931004 41.877141,17.436798" id="Fill-65" fill="#98999A" sketch:type="MSShapeGroup"></path>
            <path d="M34,19.0025683 C33.9875939,19.0852681 33.9751878,19.1684816 33.9627816,19.2511814 C33.9654786,20.8188823 33.9681756,22.3860694 33.9708726,23.9532566 L33.9967636,24 C30.7080619,23.888535 27.4193602,23.7775837 24.1306585,23.6666324 C24.1732708,23.2022807 24.5438364,23.1411547 24.8847351,23.2125539 C26.0843533,23.4647627 26.6809261,22.6927265 27.3141778,21.9741114 C27.6173188,21.6299569 27.8821626,21.2539552 28.1950127,20.9190466 C28.4830505,20.6108486 28.6017178,20.2769673 28.4291108,19.9025067 C28.2678312,19.5521882 27.913987,19.5064722 27.5520518,19.5064722 C25.8249035,19.5080131 24.0972159,19.5110951 22.3695282,19.5018492 C21.8759802,19.4992809 21.5113481,19.6030409 21.5291482,20.169098 C21.5685241,21.4034313 21.1283764,22.7625848 22.5302685,23.6399219 C22.1861334,23.6743374 21.8419983,23.7082392 21.4978632,23.7421409 C21.331729,23.6450586 21.1661342,23.5479762 21,23.4503801 C21.0253516,21.979248 21.0512427,20.5076022 21.0765943,19.0359564 C21.3069167,18.9383604 21.5647484,19.3153894 21.7837434,19 C24.7871043,19.058044 27.7904651,19.1166016 30.7943654,19.1746456 C31.7280611,19.2383398 32.6741629,19.4905486 33.5749554,19.0169509 C33.7162773,19.0123279 33.8581387,19.0071913 34,19.0025683" id="Fill-66" fill="#E5E5E5" sketch:type="MSShapeGroup"></path>
            <path d="M29.3011347,29.0872386 C30.2620718,28.9038138 31.1620863,29.5234316 32.1373581,29.3265855 C32.4547693,29.262275 32.7583579,29.2611566 33,29 C32.2888964,30.1603853 32.5791741,31.4801487 32.4998213,32.7411939 C31.4339337,32.8138927 30.3798211,33.1113987 29.3011347,32.9553759 C28.6514655,32.4039831 27.9413858,32.0952927 28.0038441,30.8012534 C28.060159,29.630243 29.0052255,29.7527126 29.3011347,29.0872386" id="Fill-67" fill="#C9CCCF" sketch:type="MSShapeGroup"></path>
            <path d="M36.9254195,40 C36.7827487,39.9945472 36.640849,39.9884886 36.501263,39.9824299 C35.749349,38.6137812 35.8357227,37.2857254 36.812054,36.0000801 C36.8112829,35.9994742 36.8429018,36.0025036 36.8429018,36.0025036 C37.1081925,37.332377 36.9662928,38.6664914 36.9254195,40" id="Fill-68" fill="#E5E5E5" sketch:type="MSShapeGroup"></path>
            <path d="M36,29.0574949 C36.7367503,28.869894 37.0224421,29.1496104 36.9986344,29.7764445 C36.9709661,30.5167379 36.9574536,31.2575929 36.9381501,31.9990097 C36.2992043,32.0181068 36.0173732,31.7614193 36.032816,31.1929998 C36.0521195,30.4819138 36.0135125,29.7691427 36,29.0574949" id="Fill-69" fill="#6C6E6F" sketch:type="MSShapeGroup"></path>
            <path d="M36.87179,36 C36.87179,36 36.8417299,35.9970869 36.842463,35.9976695 C35.6341914,35.3416424 36.0828942,34.3593496 36.0755625,33.4743538 C36.0740961,33.2383938 36.2859836,33.0053469 36.6034481,33.0001033 C36.997896,32.9936945 37.005961,33.2867511 36.9986292,33.5081456 C36.9700354,34.338958 36.9165137,35.1691877 36.87179,36" id="Fill-70" fill="#C9CCCF" sketch:type="MSShapeGroup"></path>
            <path d="M30.2404086,32.3416592 C31.3864289,32.5905442 32.5063415,32.1159679 33.6387641,32 C33.7165433,32.1944692 34.1968167,31.9946476 33.9090878,32.4371097 C33.6626962,32.8162355 33.2052671,32.8269402 32.8408468,33 C31.8971613,32.9455843 30.9534758,32.8902765 30.0097904,32.8349688 C30.0076148,32.7216771 30.0043513,32.6083854 30,32.4950937 C30.0832184,32.455843 30.1631733,32.4041035 30.2404086,32.3416592" id="Fill-71" fill="#434445" sketch:type="MSShapeGroup"></path>
            <path d="M23.0565478,29.2128966 C23.6443365,29.142126 24.231561,29.0707706 24.8193497,29 C25.9080562,29.3520983 26.1190284,30.1802895 25.9464148,31.2219623 C25.8561593,31.7647317 25.7749294,32.3098406 25.6897508,32.8537798 C25.416164,32.8999854 25.142013,32.946191 24.8684261,32.9929814 L24.8763235,33 C24.7984782,32.6455622 24.5559166,32.2630502 24.2575095,32.5589999 C23.1930592,33.6141249 23.4830048,32.4724375 23.3256219,31.9992689 C23.0232661,31.0903641 22.9262414,30.1644977 23.0565478,29.2128966" id="Fill-72" fill="#C9CCCF" sketch:type="MSShapeGroup"></path>
            <path d="M15,17.6773052 C15.00325,15.8901526 15.0059583,14.1030001 15.0092082,12.3158475 C15.4782861,12.3517476 15.9419473,12.3265054 16.4121085,12.4841293 C17.4997624,12.8481789 18.5662916,12.8593977 19.6274042,12.255827 C20.4355614,11.7952959 21.0292211,11.8878508 20.9988882,13.1045281 C20.9501387,15.0689375 20.9718051,17.0344688 20.9636802,19 C19.3874487,18.8721058 17.9363407,18.1737364 16.3861088,17.9274841 C15.9224475,17.854001 15.4620363,17.7614461 15,17.6773052" id="Fill-73" fill="#98999A" sketch:type="MSShapeGroup"></path>
            <path d="M34.5465418,18.9862577 C34.4030285,18.9906748 34.2595153,18.9955828 34.116002,19 C34.0859897,18.7703067 34.0003183,18.5332515 34.0336047,18.311411 C34.3571916,16.163681 34.215861,14.0125153 34.1280069,11.8613497 C34.212587,11.4004908 33.8300668,11.4652761 33.5463144,11.4647853 C31.0651175,11.4642945 28.5839207,11.4721472 26.1027238,11.4780368 C25.0692101,11.4397546 24.0356964,11.4019632 23.0021827,11.3641718 C23.001637,11.2429448 23.0010914,11.1217178 23,11 C26.9043245,11.009816 30.808649,11.0196319 34.7124278,11.0294479 C34.735892,11.0878528 34.7549907,11.1477301 34.769724,11.208589 C34.7440771,11.2699387 34.7309809,11.3332515 34.7315265,11.3985276 C34.4003001,11.7680982 34.6502205,11.9894479 34.9798099,12.1906748 L35,12.2333742 C34.4848802,13.4373006 34.8641262,14.687362 34.7577191,15.9119018 C34.6693193,16.9357055 35.0731208,17.9874847 34.5465418,18.9862577" id="Fill-74" fill="#C9CCCF" sketch:type="MSShapeGroup"></path>
            <path d="M21.9063856,19.8719627 C21.6546807,20.1863087 21.3583385,19.810527 21.0936144,19.9078002 C21.0626162,19.8125748 21.0309981,19.7173495 21,19.6216121 C21.0210787,19.4536879 21.0415375,19.2857636 21.0626162,19.1178393 C21.482951,17.2348347 21.1277123,15.3364712 21.216367,13.446811 C21.2393056,12.9650527 21.2238066,12.4822703 21.2262864,12 C21.4624923,12.0778186 21.6980781,12.1556371 21.933044,12.2329437 L21.9311841,12.2308959 C21.8685679,14.6432715 21.8270304,17.0551352 22,19.465975 C21.9690019,19.6011336 21.9373838,19.7368041 21.9063856,19.8719627" id="Fill-75" fill="#C9CCCF" sketch:type="MSShapeGroup"></path>
            <path d="M15.4249996,12 C15.2824997,11.8706084 15.1416665,11.7407883 15,11.6113967 C15.1308332,11.1478149 14.7491669,10.6388175 15.5508328,10 C15.9274991,10.8209083 16.3933319,11.4143102 15.4249996,12" id="Fill-76" fill="#434445" sketch:type="MSShapeGroup"></path>
            <path d="M22.1148085,12 C21.8832781,11.8945319 21.6511368,11.7883654 21.4183846,11.6821988 C20.9864796,11.4922166 20.7592255,11.2023539 21.3896724,11.0542795 C21.9040487,10.9341437 22.459966,11.0493903 22.9975564,11.0598672 C22.9987782,11.2330864 22.9993891,11.405607 23,11.5781277 C22.712267,11.7387744 22.3109069,11.5872077 22.1148085,12" id="Fill-77" fill="#98999A" sketch:type="MSShapeGroup"></path>
            <path d="M23.5277059,25.031198 C26.6851372,25.1633308 29.8425686,25.2954635 33,25.428208 C32.7845676,26.9599691 31.8679441,28.2017722 31.7156914,29.7598375 C30.4065251,30.3629991 29.0833765,29.6148586 27.7705852,29.8179515 C27.4427758,29.7977645 27.1149663,29.7580024 26.7876748,29.7598375 C23.5945106,29.7775776 22.3008804,28.7431495 21,25.1211217 C21.3303988,25.0807478 21.6607975,25.0403739 21.9917141,25 C22.503884,25.0110111 23.015536,25.0207987 23.5277059,25.031198" id="Fill-78" fill="#98999A" sketch:type="MSShapeGroup"></path>
            <path d="M25.9377659,32.8528483 C26.0295369,32.34221 26.1170536,31.8304736 26.2142944,31.3209334 C26.4002674,30.3430336 26.1729671,29.5655456 25,29.2350034 C26.1602042,28.8023336 27.3872615,29.1949211 28.5669138,29 C29.0446092,29.0356898 29.5223046,29.0719286 30,29.1076184 C29.6487176,29.7610158 28.526802,29.6407687 28.4599489,30.7905285 C28.3858028,32.0610844 29.228759,32.364173 30,32.9055594 C29.9136988,32.9439945 29.8243588,32.9758408 29.7313723,33 C28.467242,32.9511325 27.202504,32.9017159 25.9377659,32.8528483" id="Fill-79" fill="#E5E5E5" sketch:type="MSShapeGroup"></path>
            <path d="M43,18.7114017 C43.1802704,16.2284889 43.0956435,13.7417216 43.0931397,11.2560555 C43.122684,11.1707037 43.1522283,11.0853518 43.1812719,11 C43.4541813,11.0011013 43.7270906,11.0027533 44,11.0038546 C43.7941913,13.0214621 43.7381072,15.0434749 43.8512769,17.0704436 C43.8352529,17.541806 43.8562844,18.0192257 43.794692,18.482879 C43.7030546,19.1739536 43.3740611,19.0897031 43,18.7114017" id="Fill-80" fill="#C9CCCF" sketch:type="MSShapeGroup"></path>
            <path d="M43.7119164,10.8670046 C43.4211724,10.8653941 43.1304284,10.8629784 42.8396844,10.8613678 C42.2950062,10.581944 41.7417924,10.7824527 41.2035159,10.8629784 C38.8941017,11.2084332 36.5884218,11.6150876 34.2816749,12 L34,11.9468531 C34,11.839754 34.0128034,11.735876 34.0378767,11.635219 C37.1587068,11.116634 40.2843381,10.6560275 43.3966326,10.0432276 C44.2699315,9.87090282 44.0261333,10.2276313 43.7119164,10.8670046" id="Fill-81" fill="#98999A" sketch:type="MSShapeGroup"></path>
            <path d="M25.7547952,32 C26.8335925,32.089 27.9123898,32.179 28.9906687,32.268 C28.994816,32.395 28.9979264,32.522 29,32.649 C27.6651115,32.556 26.3048212,33.403 25,32.238 C25.2514256,32.158 25.5033696,32.079 25.7547952,32" id="Fill-82" fill="#6C6E6F" sketch:type="MSShapeGroup"></path>
            <path d="M16,76.4553045 L16.0317063,76.0158565 C16.7553887,75.9275196 17.3889584,76.2271941 18.2233347,76.4469181 C17.7282715,76.9400392 16.5523571,76.3345402 16.8288138,77.5578383 C16.9828953,78.2399333 16.831595,78.9863241 16.9100264,79.6930192 C16.957864,80.1224035 17.4490335,80.1168126 17.764984,80.2073858 C18.4708664,80.4092189 19.1967737,80.540606 20,80.7200752 C18.3340286,81.5581575 16.317063,80.4008324 16.2964817,78.7537409 C16.2864692,77.9861045 16.636351,77.1480223 16,76.4553045" id="Fill-83" fill="#98999A" sketch:type="MSShapeGroup"></path>
            <path d="M34.0402135,11.9867624 C36.4552563,11.6905376 38.8691821,11.3775805 41.2870175,11.1117218 C41.8505647,11.0497501 42.4297505,10.8954405 43,11.1104824 C42.9676058,11.2065385 42.9346531,11.3025947 42.9017004,11.3986509 C42.1510488,12.0233258 41.2708204,11.6353828 40.4604071,11.7853544 C38.3123371,12.1813536 36.0788135,12.0208469 34.0206653,13 L34,12.9460846 L34.0402135,11.9867624" id="Fill-84" fill="#434445" sketch:type="MSShapeGroup"></path>
            <path d="M23.6311913,25 C23.09893,24.9895166 22.5672069,24.97965 22.0349456,24.9685499 C20.6356743,23.9146642 21.0748302,22.2829604 21.035543,20.801107 C21.017783,20.1215387 21.3815936,19.9969718 21.8740294,20.0000551 C23.597824,20.0111552 25.3216186,20.0074551 27.044875,20.0056051 C27.4059947,20.0056051 27.7590416,20.0604886 27.9199578,20.4810562 C28.0921758,20.9306073 27.9737759,21.3314415 27.6863871,21.7014424 C27.374242,22.10351 27.109995,22.554911 26.8075371,22.9680786 C26.1757123,23.8307973 25.5804838,24.7576494 24.3835687,24.4548654 C24.0434381,24.3691485 23.6737076,24.442532 23.6311913,25" id="Fill-85" fill="#C9CCCF" sketch:type="MSShapeGroup"></path>
            <path d="M32.8899256,12 C32.979817,14.3230965 33.124425,16.6461929 32.7933342,18.9655792 C32.759276,19.2051502 32.8469341,19.4611519 32.8776423,19.7092033 C31.9457865,20.1978857 30.9664724,19.9376438 30,19.8719208 C30.0262416,19.723514 30.0530415,19.5751072 30.0798415,19.4261703 C32.505235,19.2941943 32.505235,19.2941943 32.4460518,17.1666768 C32.4348852,16.3276483 32.6883678,15.4705991 32.2534273,14.661252 C32.3131688,13.8052627 32.3729103,12.9492735 32.4320935,12.0938143 C32.5850764,12.0625429 32.737501,12.0312714 32.8899256,12" id="Fill-86" fill="#98999A" sketch:type="MSShapeGroup"></path>
            <path d="M31,19.3648036 C30.974359,19.5770393 30.9487179,19.7885196 30.9236111,20 C27.9487179,19.9146526 24.974359,19.8285498 22,19.7432024 C22.0267094,19.5438066 22.053953,19.3436556 22.0806624,19.1442598 C22.2291667,19.0959215 22.3776709,19.0483384 22.5261752,19 C23.7211538,19.0203927 24.9161325,19.0400302 26.1111111,19.060423 C27.4770299,19.3851964 28.8509615,19.3617825 30.2270299,19.2507553 C30.4845085,19.2892749 30.7419872,19.3270393 31,19.3648036" id="Fill-87" fill="#434445" sketch:type="MSShapeGroup"></path>
            <path d="M33.98811,12.8052986 C33.83983,12.8636798 33.69155,12.922061 33.5427268,12.9804421 C31.0235962,13.0843408 28.5142423,12.7578021 26.0059747,12.3906934 C26.0048884,12.2709625 26.0027158,12.1512316 26,12.0324903 C28.469704,12.0206161 30.9394079,12.004784 33.4091119,12.0057735 C33.69155,12.006763 34.0722983,11.8761475 33.98811,12.8052986" id="Fill-88" fill="#6C6E6F" sketch:type="MSShapeGroup"></path>
            <path d="M25.9938418,12.232 C25.996641,12.352 25.9988803,12.473 26,12.594 C24.8484255,12.637 23.6962911,12.68 22.5447166,12.723 C22.363331,12.682 22.1813856,12.641 22,12.6 L22.0016795,12.604 C22.1813856,12.013 22.5491952,12.23 22.8128761,12 C23.873198,12.077 24.9335199,12.154 25.9938418,12.232" id="Fill-89" fill="#434445" sketch:type="MSShapeGroup"></path>
            <path d="M33.8130378,12.0408922 C33.7890378,12.3605948 33.7650378,12.6802974 33.7410378,13 C33.1370378,12.7459727 32.6790378,12.4665428 33.2860378,12 C33.4610378,12.0136307 33.6370378,12.0272615 33.8130378,12.0408922" id="Fill-90" fill="#6C6E6F" sketch:type="MSShapeGroup"></path>
            <path d="M22.0824957,12 C22.3880161,12.0232097 22.6944796,12.0464195 23,12.0696292 C22.9915133,14.677045 22.9820837,17.2844608 22.973597,19.8918766 C22.7114529,19.9281064 22.4493088,19.9637702 22.1871647,20 C21.9240777,17.3342768 21.9872563,14.6674215 22.0824957,12" id="Fill-91" fill="#98999A" sketch:type="MSShapeGroup"></path>
            <path d="M29.9904176,18.9516963 C28.6534071,19.0236796 27.3184728,19.0388597 25.9913238,18.8282965 C25.9617393,18.5016788 25.7639905,18.3870933 25.4266237,18.3342076 C22.7801112,17.9169988 22.7910107,17.9125916 23.2010411,15.4382297 C23.2768189,14.9803772 23.2109026,14.5024478 23.2617671,14.0387192 C23.3048463,13.6474635 23.4371979,13.2317236 23.8321765,13.0525001 C24.2759436,12.8507512 24.4928963,13.2792228 24.727496,13.5132906 C25.5984213,14.3839448 26.6572339,14.660615 27.8141424,14.2571173 C29.5471696,13.6523603 31.1815818,13.6660714 32.7620154,14.6233992 C33.1663365,15.3711433 32.9306988,16.1629587 32.9410793,16.9381249 C32.6576912,16.9630987 32.4718799,17.0953128 32.4796653,17.3763901 C32.5102879,18.4517313 31.8402255,18.659846 30.8810659,18.5785588 C30.542142,18.5496676 30.1056413,18.4468344 29.9904176,18.9516963" id="Fill-92" fill="#C9CCCF" sketch:type="MSShapeGroup"></path>
            <path d="M33.8246663,15.1025879 C32.1562562,13.9875954 30.4308627,13.9716261 28.6013648,14.675982 C27.3800558,15.1459328 26.2623032,14.8236972 25.342897,13.8096528 C25.0952381,13.5370357 24.8662084,13.0379981 24.3977386,13.2729736 C23.9807731,13.4817138 23.841054,13.9659229 23.7955768,14.4216155 C23.7418809,14.9617167 23.8114664,15.5183575 23.7314704,16.0516147 C23.2986153,18.9334854 23.287109,18.9386184 26.0809424,19.4245384 C26.4370891,19.4861339 26.6458458,19.6195908 26.6770771,20 C25.4513847,19.9846011 24.2256924,19.9697726 23,19.9543737 C23.0049313,17.3274399 23.0104104,14.7005062 23.0153417,12.0735724 C24.1424088,12.0490483 25.2700239,12.0245241 26.3970911,12 C28.927376,12.2115919 31.4587567,12.3998004 34,12.3399159 C33.9419207,13.2604263 33.8832935,14.1815071 33.8246663,15.1025879" id="Fill-93" fill="#E5E5E5" sketch:type="MSShapeGroup"></path>
            <path d="M30,18.9291579 C30.1166026,18.4454609 30.5583269,18.5439831 30.9013067,18.5716631 C31.8719446,18.6495426 32.5500256,18.4501525 32.5190366,17.4198921 C32.511158,17.1505982 32.6991929,17.0239268 32.9859723,17 C33.0416474,18.8831809 33.0416474,18.8831809 30.7600179,19 C30.5063285,18.9765423 30.2531642,18.9530847 30,18.9291579" id="Fill-94" fill="#E5E5E5" sketch:type="MSShapeGroup"></path>
        </g>
    </g>
</svg>